<svg width="47" height="37" viewBox="0 0 47 37" fill="none" xmlns="http://www.w3.org/2000/svg">
<mask id="mask0_54_1419" style="mask-type:luminance" maskUnits="userSpaceOnUse" x="0" y="16" width="42" height="21">
<path d="M0.333252 16.1685H41.5572V36.3334H0.333252V16.1685Z" fill="white"/>
</mask>
<g mask="url(#mask0_54_1419)">
<path d="M40.8014 21.9001L39.0271 23.8685C38.5675 24.3773 37.7859 24.3773 37.3204 23.8685L35.5734 21.928C35.3528 21.6832 34.9469 21.839 34.9469 22.1685V28.7148C34.9469 29.3428 34.4373 29.8524 33.8094 29.8524H13.0467C12.418 29.8524 11.9084 29.3428 11.9084 28.7148V26.4376H16.4151C17.1254 26.4376 17.4938 25.5597 17.0092 25.0222L9.41575 16.5993C9.09443 16.2427 8.54883 16.2427 8.22824 16.5993L0.634783 25.0222C0.15022 25.5597 0.518606 26.4376 1.22891 26.4376H5.42748V34.1678C5.42748 35.3642 6.39734 36.3333 7.59294 36.3333H39.2624C40.4587 36.3333 41.4278 35.3642 41.4278 34.1678V22.1405C41.4278 21.8111 41.022 21.6552 40.8014 21.9001Z" fill="#26BA73"/>
</g>
<mask id="mask1_54_1419" style="mask-type:luminance" maskUnits="userSpaceOnUse" x="5" y="0" width="42" height="22">
<path d="M5.41553 0.333344H46.6395V21.063H5.41553V0.333344Z" fill="white"/>
</mask>
<g mask="url(#mask1_54_1419)">
<path d="M45.7681 10.8422H41.4276V2.49878C41.4276 1.30244 40.4585 0.333313 39.2621 0.333313H7.59271C6.39711 0.333313 5.42725 1.30318 5.42725 2.49878V15.0916C5.42725 15.4151 5.82063 15.5739 6.04563 15.3416L7.91036 13.4114C8.40228 12.9026 9.23905 12.9026 9.73685 13.4114L11.2905 15.0188C11.5148 15.2511 11.9082 15.0923 11.9082 14.7688V7.95251C11.9082 7.32383 12.4178 6.81426 13.0464 6.81426H33.8092C34.4371 6.81426 34.9467 7.32383 34.9467 7.95251V10.8422H30.5819C29.8709 10.8422 29.5025 11.7202 29.9878 12.2577L37.5813 20.6806C37.9026 21.0365 38.4474 21.0365 38.7688 20.6806L46.3615 12.2577C46.8468 11.7202 46.4784 10.8422 45.7681 10.8422Z" fill="#002740"/>
</g>
<mask id="mask2_54_1419" style="mask-type:luminance" maskUnits="userSpaceOnUse" x="20" y="6" width="7" height="10">
<path d="M20.2598 6.17789H26.7407V15.4692H20.2598V6.17789Z" fill="white"/>
</mask>
<g mask="url(#mask2_54_1419)">
<mask id="mask3_54_1419" style="mask-type:luminance" maskUnits="userSpaceOnUse" x="20" y="6" width="7" height="10">
<path d="M20.9657 6.17789H26.0348C26.2223 6.17789 26.4017 6.25215 26.5341 6.38451C26.6664 6.51686 26.7407 6.69701 26.7407 6.88378V14.7486C26.7407 14.9353 26.6664 15.1155 26.5341 15.2478C26.4017 15.3802 26.2223 15.4545 26.0348 15.4545H20.9657C20.7789 15.4545 20.5987 15.3802 20.4664 15.2478C20.334 15.1155 20.2598 14.9353 20.2598 14.7486V6.88378C20.2598 6.69701 20.334 6.51686 20.4664 6.38451C20.5987 6.25215 20.7789 6.17789 20.9657 6.17789Z" fill="white"/>
</mask>
<g mask="url(#mask3_54_1419)">
<path d="M20.2598 6.17789H26.7407V15.4442H20.2598V6.17789Z" fill="#002740"/>
</g>
</g>
<mask id="mask4_54_1419" style="mask-type:luminance" maskUnits="userSpaceOnUse" x="20" y="21" width="7" height="10">
<path d="M20.2598 21.6159H26.7407V30.9071H20.2598V21.6159Z" fill="white"/>
</mask>
<g mask="url(#mask4_54_1419)">
<mask id="mask5_54_1419" style="mask-type:luminance" maskUnits="userSpaceOnUse" x="20" y="21" width="7" height="10">
<path d="M20.9657 21.6159H26.0348C26.2223 21.6159 26.4017 21.6901 26.5341 21.8225C26.6664 21.9548 26.7407 22.135 26.7407 22.3218V30.1866C26.7407 30.3733 26.6664 30.5527 26.5341 30.6858C26.4017 30.8182 26.2223 30.8924 26.0348 30.8924H20.9657C20.7789 30.8924 20.5987 30.8182 20.4664 30.6858C20.334 30.5527 20.2598 30.3733 20.2598 30.1866V22.3218C20.2598 22.135 20.334 21.9548 20.4664 21.8225C20.5987 21.6901 20.7789 21.6159 20.9657 21.6159Z" fill="white"/>
</mask>
<g mask="url(#mask5_54_1419)">
<path opacity="0.4" d="M20.2598 21.6159H26.7407V30.8821H20.2598V21.6159Z" fill="#26BA73"/>
</g>
</g>
</svg>
