<svg width="58" height="30" viewBox="0 0 58 30" fill="none" xmlns="http://www.w3.org/2000/svg">
<path d="M0 11.1883V0.688271H6.75V2.48827H1.98V4.99327H6.33V6.79327H1.98V9.38827H6.84V11.1883H0Z" fill="#002740"/>
<path d="M11.8007 11.3983C10.9907 11.3983 10.2757 11.2533 9.65566 10.9633C9.03566 10.6733 8.55066 10.2583 8.20066 9.71827C7.85066 9.17827 7.67566 8.52827 7.67566 7.76827V7.34827H9.62566V7.76827C9.62566 8.39827 9.82066 8.87327 10.2107 9.19327C10.6007 9.50327 11.1307 9.65827 11.8007 9.65827C12.4807 9.65827 12.9857 9.52327 13.3157 9.25327C13.6557 8.98327 13.8257 8.63827 13.8257 8.21827C13.8257 7.92827 13.7407 7.69327 13.5707 7.51327C13.4107 7.33327 13.1707 7.18827 12.8507 7.07827C12.5407 6.95827 12.1607 6.84827 11.7107 6.74827L11.3657 6.67327C10.6457 6.51327 10.0257 6.31327 9.50566 6.07327C8.99566 5.82327 8.60066 5.49827 8.32066 5.09827C8.05066 4.69827 7.91566 4.17827 7.91566 3.53827C7.91566 2.89827 8.06566 2.35327 8.36566 1.90327C8.67566 1.44327 9.10566 1.09327 9.65566 0.853272C10.2157 0.603272 10.8707 0.478271 11.6207 0.478271C12.3707 0.478271 13.0357 0.608272 13.6157 0.868272C14.2057 1.11827 14.6657 1.49827 14.9957 2.00827C15.3357 2.50827 15.5057 3.13827 15.5057 3.89827V4.34827H13.5557V3.89827C13.5557 3.49827 13.4757 3.17827 13.3157 2.93827C13.1657 2.68827 12.9457 2.50827 12.6557 2.39827C12.3657 2.27827 12.0207 2.21827 11.6207 2.21827C11.0207 2.21827 10.5757 2.33327 10.2857 2.56327C10.0057 2.78327 9.86566 3.08827 9.86566 3.47827C9.86566 3.73827 9.93066 3.95827 10.0607 4.13827C10.2007 4.31827 10.4057 4.46827 10.6757 4.58827C10.9457 4.70827 11.2907 4.81327 11.7107 4.90327L12.0557 4.97827C12.8057 5.13827 13.4557 5.34327 14.0057 5.59327C14.5657 5.84327 15.0007 6.17327 15.3107 6.58327C15.6207 6.99327 15.7757 7.51827 15.7757 8.15827C15.7757 8.79827 15.6107 9.36327 15.2807 9.85327C14.9607 10.3333 14.5007 10.7133 13.9007 10.9933C13.3107 11.2633 12.6107 11.3983 11.8007 11.3983Z" fill="#002740"/>
<path d="M21.0923 11.3983C19.7923 11.3983 18.7623 11.0383 18.0023 10.3183C17.2423 9.58827 16.8623 8.54827 16.8623 7.19827V4.67827C16.8623 3.32827 17.2423 2.29327 18.0023 1.57327C18.7623 0.843272 19.7923 0.478271 21.0923 0.478271C22.3823 0.478271 23.3773 0.833272 24.0773 1.54327C24.7873 2.24327 25.1423 3.20827 25.1423 4.43827V4.52827H23.1923V4.37827C23.1923 3.75827 23.0173 3.24827 22.6673 2.84827C22.3273 2.44827 21.8023 2.24827 21.0923 2.24827C20.3923 2.24827 19.8423 2.46327 19.4423 2.89327C19.0423 3.32327 18.8423 3.90827 18.8423 4.64827V7.22827C18.8423 7.95827 19.0423 8.54327 19.4423 8.98327C19.8423 9.41327 20.3923 9.62827 21.0923 9.62827C21.8023 9.62827 22.3273 9.42827 22.6673 9.02827C23.0173 8.61827 23.1923 8.10827 23.1923 7.49827V7.22827H25.1423V7.43827C25.1423 8.66827 24.7873 9.63827 24.0773 10.3483C23.3773 11.0483 22.3823 11.3983 21.0923 11.3983Z" fill="#002740"/>
<path d="M26.6057 11.1883V0.688271H31.1657C31.8257 0.688271 32.4007 0.803271 32.8907 1.03327C33.3807 1.26327 33.7607 1.58827 34.0307 2.00827C34.3007 2.42827 34.4357 2.92327 34.4357 3.49327V3.67327C34.4357 4.30327 34.2857 4.81327 33.9857 5.20327C33.6857 5.59327 33.3157 5.87827 32.8757 6.05827V6.32827C33.2757 6.34827 33.5857 6.48827 33.8057 6.74827C34.0257 6.99827 34.1357 7.33327 34.1357 7.75327V11.1883H32.1557V8.03827C32.1557 7.79827 32.0907 7.60327 31.9607 7.45327C31.8407 7.30327 31.6357 7.22827 31.3457 7.22827H28.5857V11.1883H26.6057ZM28.5857 5.42827H30.9557C31.4257 5.42827 31.7907 5.30327 32.0507 5.05327C32.3207 4.79327 32.4557 4.45327 32.4557 4.03327V3.88327C32.4557 3.46327 32.3257 3.12827 32.0657 2.87827C31.8057 2.61827 31.4357 2.48827 30.9557 2.48827H28.5857V5.42827Z" fill="#002740"/>
<path d="M40.0132 11.3983C38.6932 11.3983 37.6432 11.0383 36.8632 10.3183C36.0832 9.58827 35.6932 8.54827 35.6932 7.19827V4.67827C35.6932 3.32827 36.0832 2.29327 36.8632 1.57327C37.6432 0.843272 38.6932 0.478271 40.0132 0.478271C41.3332 0.478271 42.3832 0.843272 43.1632 1.57327C43.9432 2.29327 44.3332 3.32827 44.3332 4.67827V7.19827C44.3332 8.54827 43.9432 9.58827 43.1632 10.3183C42.3832 11.0383 41.3332 11.3983 40.0132 11.3983ZM40.0132 9.62827C40.7532 9.62827 41.3282 9.41327 41.7382 8.98327C42.1482 8.55327 42.3532 7.97827 42.3532 7.25827V4.61827C42.3532 3.89827 42.1482 3.32327 41.7382 2.89327C41.3282 2.46327 40.7532 2.24827 40.0132 2.24827C39.2832 2.24827 38.7082 2.46327 38.2882 2.89327C37.8782 3.32327 37.6732 3.89827 37.6732 4.61827V7.25827C37.6732 7.97827 37.8782 8.55327 38.2882 8.98327C38.7082 9.41327 39.2832 9.62827 40.0132 9.62827Z" fill="#002740"/>
<path d="M46.672 11.1883L45.292 0.688271H47.257L48.277 9.80827H48.547L49.867 0.688271H53.287L54.607 9.80827H54.877L55.897 0.688271H57.862L56.482 11.1883H53.062L51.712 1.85827H51.442L50.092 11.1883H46.672Z" fill="#002740"/>
<path d="M0 29.5216V19.0216H3.675L5.49 28.1716H5.76L7.575 19.0216H11.25V29.5216H9.33V20.4766H9.06L7.26 29.5216H3.99L2.19 20.4766H1.92V29.5216H0Z" fill="#002740"/>
<path d="M12.3575 29.5216L15.1175 19.0216H18.5675L21.3275 29.5216H19.2875L18.7175 27.2116H14.9675L14.3975 29.5216H12.3575ZM15.4325 25.3816H18.2525L16.9775 20.2666H16.7075L15.4325 25.3816Z" fill="#002740"/>
<path d="M22.4344 29.5216V19.0216H26.9944C27.6544 19.0216 28.2294 19.1366 28.7194 19.3666C29.2094 19.5966 29.5894 19.9216 29.8594 20.3416C30.1294 20.7616 30.2644 21.2566 30.2644 21.8266V22.0066C30.2644 22.6366 30.1144 23.1466 29.8144 23.5366C29.5144 23.9266 29.1444 24.2116 28.7044 24.3916V24.6616C29.1044 24.6816 29.4144 24.8216 29.6344 25.0816C29.8544 25.3316 29.9644 25.6666 29.9644 26.0866V29.5216H27.9844V26.3716C27.9844 26.1316 27.9194 25.9366 27.7894 25.7866C27.6694 25.6366 27.4644 25.5616 27.1744 25.5616H24.4144V29.5216H22.4344ZM24.4144 23.7616H26.7844C27.2544 23.7616 27.6194 23.6366 27.8794 23.3866C28.1494 23.1266 28.2844 22.7866 28.2844 22.3666V22.2166C28.2844 21.7966 28.1544 21.4616 27.8944 21.2116C27.6344 20.9516 27.2644 20.8216 26.7844 20.8216H24.4144V23.7616Z" fill="#002740"/>
<path d="M31.7619 29.5216V19.0216H33.7419V23.1916H34.0119L37.4169 19.0216H39.9519L35.5719 24.1966L40.1019 29.5216H37.4919L34.0119 25.2616H33.7419V29.5216H31.7619Z" fill="#002740"/>
<path d="M41.0016 29.5216V19.0216H47.7516V20.8216H42.9816V23.3266H47.3316V25.1266H42.9816V27.7216H47.8416V29.5216H41.0016Z" fill="#002740"/>
<path d="M51.5872 29.5216V20.8216H48.5272V19.0216H56.6272V20.8216H53.5672V29.5216H51.5872Z" fill="#002740"/>
</svg>
