<svg width="16" height="16" viewBox="0 0 16 16" fill="none" xmlns="http://www.w3.org/2000/svg">
<path d="M13.3535 6.35372L8.35354 11.3537C8.3071 11.4002 8.25196 11.4371 8.19126 11.4623C8.13056 11.4874 8.0655 11.5004 7.99979 11.5004C7.93408 11.5004 7.86902 11.4874 7.80832 11.4623C7.74762 11.4371 7.69248 11.4002 7.64604 11.3537L2.64604 6.35372C2.55222 6.2599 2.49951 6.13265 2.49951 5.99997C2.49951 5.86729 2.55222 5.74004 2.64604 5.64622C2.73986 5.5524 2.86711 5.49969 2.99979 5.49969C3.13247 5.49969 3.25972 5.5524 3.35354 5.64622L7.99979 10.2931L12.646 5.64622C12.6925 5.59977 12.7476 5.56292 12.8083 5.53778C12.869 5.51263 12.9341 5.49969 12.9998 5.49969C13.0655 5.49969 13.1305 5.51263 13.1912 5.53778C13.2519 5.56292 13.3071 5.59977 13.3535 5.64622C13.4 5.69268 13.4368 5.74783 13.462 5.80852C13.4871 5.86922 13.5001 5.93428 13.5001 5.99997C13.5001 6.06567 13.4871 6.13072 13.462 6.19142C13.4368 6.25212 13.4 6.30727 13.3535 6.35372Z" fill="#7E899C"/>
</svg>
