<svg width="101" height="100" viewBox="0 0 101 100" fill="none" xmlns="http://www.w3.org/2000/svg">
<g clip-path="url(#clip0_10_35854)">
<mask id="path-1-outside-1_10_35854" maskUnits="userSpaceOnUse" x="-0.125" y="-0.625" width="102" height="102" fill="black">
<rect fill="white" x="-0.125" y="-0.625" width="102" height="102"/>
<path d="M50.5 9.375C42.4652 9.375 34.6107 11.7576 27.93 16.2215C21.2492 20.6855 16.0422 27.0302 12.9674 34.4535C9.8926 41.8767 9.08809 50.0451 10.6556 57.9255C12.2231 65.806 16.0923 73.0447 21.7738 78.7262C27.4553 84.4077 34.694 88.2769 42.5745 89.8444C50.455 91.4119 58.6233 90.6074 66.0465 87.5326C73.4698 84.4578 79.8145 79.2508 84.2785 72.57C88.7424 65.8893 91.125 58.0349 91.125 50C91.1136 39.2291 86.8299 28.9025 79.2137 21.2863C71.5975 13.6701 61.2709 9.38637 50.5 9.375ZM68.336 42.8359L46.461 64.7109C46.1707 65.0015 45.8261 65.232 45.4467 65.3893C45.0673 65.5465 44.6607 65.6275 44.25 65.6275C43.8393 65.6275 43.4327 65.5465 43.0533 65.3893C42.674 65.232 42.3293 65.0015 42.0391 64.7109L32.6641 55.3359C32.0777 54.7496 31.7483 53.9543 31.7483 53.125C31.7483 52.2957 32.0777 51.5004 32.6641 50.9141C33.2505 50.3277 34.0458 49.9983 34.875 49.9983C35.7043 49.9983 36.4996 50.3277 37.086 50.9141L44.25 58.082L63.9141 38.4141C64.2044 38.1237 64.5491 37.8934 64.9285 37.7363C65.3078 37.5791 65.7144 37.4983 66.125 37.4983C66.5356 37.4983 66.9422 37.5791 67.3216 37.7363C67.7009 37.8934 68.0456 38.1237 68.336 38.4141C68.6263 38.7044 68.8566 39.0491 69.0137 39.4284C69.1709 39.8078 69.2518 40.2144 69.2518 40.625C69.2518 41.0356 69.1709 41.4422 69.0137 41.8216C68.8566 42.2009 68.6263 42.5456 68.336 42.8359Z"/>
</mask>
<path d="M50.5 9.375C42.4652 9.375 34.6107 11.7576 27.93 16.2215C21.2492 20.6855 16.0422 27.0302 12.9674 34.4535C9.8926 41.8767 9.08809 50.0451 10.6556 57.9255C12.2231 65.806 16.0923 73.0447 21.7738 78.7262C27.4553 84.4077 34.694 88.2769 42.5745 89.8444C50.455 91.4119 58.6233 90.6074 66.0465 87.5326C73.4698 84.4578 79.8145 79.2508 84.2785 72.57C88.7424 65.8893 91.125 58.0349 91.125 50C91.1136 39.2291 86.8299 28.9025 79.2137 21.2863C71.5975 13.6701 61.2709 9.38637 50.5 9.375ZM68.336 42.8359L46.461 64.7109C46.1707 65.0015 45.8261 65.232 45.4467 65.3893C45.0673 65.5465 44.6607 65.6275 44.25 65.6275C43.8393 65.6275 43.4327 65.5465 43.0533 65.3893C42.674 65.232 42.3293 65.0015 42.0391 64.7109L32.6641 55.3359C32.0777 54.7496 31.7483 53.9543 31.7483 53.125C31.7483 52.2957 32.0777 51.5004 32.6641 50.9141C33.2505 50.3277 34.0458 49.9983 34.875 49.9983C35.7043 49.9983 36.4996 50.3277 37.086 50.9141L44.25 58.082L63.9141 38.4141C64.2044 38.1237 64.5491 37.8934 64.9285 37.7363C65.3078 37.5791 65.7144 37.4983 66.125 37.4983C66.5356 37.4983 66.9422 37.5791 67.3216 37.7363C67.7009 37.8934 68.0456 38.1237 68.336 38.4141C68.6263 38.7044 68.8566 39.0491 69.0137 39.4284C69.1709 39.8078 69.2518 40.2144 69.2518 40.625C69.2518 41.0356 69.1709 41.4422 69.0137 41.8216C68.8566 42.2009 68.6263 42.5456 68.336 42.8359Z" fill="#26BA73"/>
<path d="M50.5 9.375L50.5106 -0.625H50.5V9.375ZM91.125 50H101.125L101.125 49.9894L91.125 50ZM46.461 64.7109L39.3899 57.6399L39.386 57.6438L46.461 64.7109ZM42.0391 64.7109L49.1141 57.6438L49.1101 57.6399L42.0391 64.7109ZM31.7483 53.125H21.7483H31.7483ZM37.086 50.9141L44.159 43.8449L44.157 43.843L37.086 50.9141ZM44.25 58.082L37.177 65.1512L44.2488 72.2268L51.3218 65.1524L44.25 58.082ZM63.9141 38.4141L56.843 31.343L56.8423 31.3437L63.9141 38.4141ZM69.2518 40.625H79.2518H69.2518ZM50.5 -0.625C40.4873 -0.625 30.6995 2.3441 22.3743 7.90685L33.4857 24.5362C38.5219 21.1711 44.443 19.375 50.5 19.375V-0.625ZM22.3743 7.90685C14.049 13.4696 7.5603 21.3761 3.72862 30.6266L22.2062 38.2803C24.5241 32.6843 28.4494 27.9014 33.4857 24.5362L22.3743 7.90685ZM3.72862 30.6266C-0.103069 39.8772 -1.10561 50.0562 0.847764 59.8764L20.4635 55.9746C19.2818 50.034 19.8883 43.8763 22.2062 38.2803L3.72862 30.6266ZM0.847764 59.8764C2.80114 69.6967 7.6227 78.7172 14.7027 85.7973L28.8449 71.6551C24.5619 67.3722 21.6451 61.9153 20.4635 55.9746L0.847764 59.8764ZM14.7027 85.7973C21.7828 92.8773 30.8033 97.6989 40.6236 99.6523L44.5254 80.0365C38.5847 78.8549 33.1279 75.9381 28.8449 71.6551L14.7027 85.7973ZM40.6236 99.6523C50.4439 101.606 60.6229 100.603 69.8734 96.7714L62.2197 78.2938C56.6237 80.6117 50.466 81.2182 44.5254 80.0365L40.6236 99.6523ZM69.8734 96.7714C79.1239 92.9397 87.0304 86.451 92.5932 78.1257L75.9638 67.0143C72.5987 72.0506 67.8157 75.9759 62.2197 78.2938L69.8734 96.7714ZM92.5932 78.1257C98.1559 69.8005 101.125 60.0127 101.125 50H81.125C81.125 56.0571 79.3289 61.9781 75.9638 67.0143L92.5932 78.1257ZM101.125 49.9894C101.111 36.57 95.7737 23.7043 86.2847 14.2153L72.1426 28.3574C77.886 34.1008 81.1164 41.8881 81.125 50.0106L101.125 49.9894ZM86.2847 14.2153C76.7958 4.7263 63.93 -0.610824 50.5106 -0.624994L50.4895 19.375C58.6119 19.3836 66.3992 22.614 72.1426 28.3574L86.2847 14.2153ZM61.2649 35.7649L39.3899 57.6399L53.532 71.782L75.407 49.907L61.2649 35.7649ZM39.386 57.6438C40.0245 57.0046 40.7827 56.4975 41.6173 56.1515L49.2761 74.627C50.8695 73.9665 52.317 72.9984 53.536 71.7781L39.386 57.6438ZM41.6173 56.1515C42.452 55.8055 43.3466 55.6275 44.25 55.6275V75.6275C45.9748 75.6275 47.6827 75.2875 49.2761 74.627L41.6173 56.1515ZM44.25 55.6275C45.1534 55.6275 46.048 55.8055 46.8827 56.1515L39.2239 74.627C40.8174 75.2875 42.5253 75.6275 44.25 75.6275V55.6275ZM46.8827 56.1515C47.7173 56.4975 48.4756 57.0046 49.1141 57.6438L34.9641 71.7781C36.183 72.9984 37.6306 73.9665 39.2239 74.627L46.8827 56.1515ZM49.1101 57.6399L39.7351 48.2649L25.593 62.407L34.968 71.782L49.1101 57.6399ZM39.7351 48.2649C41.0241 49.5539 41.7483 51.3021 41.7483 53.125H21.7483C21.7483 56.6064 23.1313 59.9453 25.593 62.407L39.7351 48.2649ZM41.7483 53.125C41.7483 54.9479 41.0241 56.6961 39.7351 57.9851L25.593 43.843C23.1313 46.3047 21.7483 49.6436 21.7483 53.125H41.7483ZM39.7351 57.9851C38.4461 59.2741 36.6979 59.9983 34.875 59.9983V39.9983C31.3936 39.9983 28.0548 41.3812 25.593 43.843L39.7351 57.9851ZM34.875 59.9983C33.0521 59.9983 31.3039 59.2741 30.0149 57.9851L44.157 43.843C41.6953 41.3812 38.3564 39.9983 34.875 39.9983V59.9983ZM30.013 57.9832L37.177 65.1512L51.323 51.0129L44.159 43.8449L30.013 57.9832ZM51.3218 65.1524L70.9859 45.4844L56.8423 31.3437L37.1782 51.0117L51.3218 65.1524ZM70.9851 45.4851C70.3469 46.1234 69.5892 46.6297 68.7553 46.9751L61.1016 28.4975C59.509 29.1572 58.062 30.1241 56.843 31.343L70.9851 45.4851ZM68.7553 46.9751C67.9214 47.3205 67.0276 47.4983 66.125 47.4983V27.4983C64.4012 27.4983 62.6943 27.8378 61.1016 28.4975L68.7553 46.9751ZM66.125 47.4983C65.2224 47.4983 64.3287 47.3205 63.4947 46.9751L71.1484 28.4975C69.5558 27.8378 67.8488 27.4983 66.125 27.4983V47.4983ZM63.4947 46.9751C62.6608 46.6297 61.9031 46.1234 61.2649 45.4851L75.407 31.343C74.1881 30.1241 72.741 29.1572 71.1484 28.4975L63.4947 46.9751ZM61.2649 45.4851C60.6266 44.8469 60.1203 44.0891 59.7749 43.2553L78.2525 35.6016C77.5929 34.0091 76.626 32.562 75.407 31.343L61.2649 45.4851ZM59.7749 43.2553C59.4296 42.4214 59.2518 41.5277 59.2518 40.625H79.2518C79.2518 38.9011 78.9122 37.1942 78.2525 35.6016L59.7749 43.2553ZM59.2518 40.625C59.2518 39.7223 59.4296 38.8286 59.7749 37.9947L78.2525 45.6484C78.9122 44.0558 79.2518 42.3489 79.2518 40.625H59.2518ZM59.7749 37.9947C60.1203 37.1609 60.6266 36.4032 61.2649 35.7649L75.407 49.907C76.626 48.688 77.5929 47.2409 78.2525 45.6484L59.7749 37.9947Z" fill="#EEFBF3" mask="url(#path-1-outside-1_10_35854)"/>
</g>
<defs>
<clipPath id="clip0_10_35854">
<rect width="100" height="100" fill="white" transform="translate(0.5)"/>
</clipPath>
</defs>
</svg>
