<svg width="64" height="64" viewBox="0 0 64 64" fill="none" xmlns="http://www.w3.org/2000/svg">
<path d="M3 32C3 15.9837 15.9837 3 32 3C48.0163 3 61 15.9837 61 32C61 48.0163 48.0163 61 32 61C15.9837 61 3 48.0163 3 32Z" fill="#E87040"/>
<path d="M3 32C3 15.9837 15.9837 3 32 3C48.0163 3 61 15.9837 61 32C61 48.0163 48.0163 61 32 61C15.9837 61 3 48.0163 3 32Z" stroke="#441D12" stroke-width="6"/>
<path d="M43.7863 31.3825L32.7863 17.3825C32.6927 17.2634 32.5733 17.1672 32.4371 17.101C32.3009 17.0348 32.1515 17.0004 32 17.0004C31.8486 17.0004 31.6992 17.0348 31.563 17.101C31.4268 17.1672 31.3074 17.2634 31.2138 17.3825L20.2138 31.3825C20.0755 31.5586 20.0004 31.7761 20.0004 32C20.0004 32.2239 20.0755 32.4414 20.2138 32.6175L31.2138 46.6175C31.3074 46.7366 31.4268 46.8328 31.563 46.899C31.6992 46.9652 31.8486 46.9996 32 46.9996C32.1515 46.9996 32.3009 46.9652 32.4371 46.899C32.5733 46.8328 32.6927 46.7366 32.7863 46.6175L43.7863 32.6175C43.9246 32.4414 43.9997 32.2239 43.9997 32C43.9997 31.7761 43.9246 31.5586 43.7863 31.3825ZM33 20.8913L41.4275 31.6163L33 35.4475V20.8913ZM31 35.4475L22.5725 31.6163L31 20.8913V35.4475ZM31 37.6438V43.1088L24.3213 34.6088L31 37.6438ZM33 37.6438L39.6788 34.6075L33 43.1075V37.6438Z" fill="white"/>
</svg>
