<svg width="101" height="100" viewBox="0 0 101 100" fill="none" xmlns="http://www.w3.org/2000/svg">
<path d="M5.5 50C5.5 25.1472 25.6472 5 50.5 5C75.3528 5 95.5 25.1472 95.5 50C95.5 74.8528 75.3528 95 50.5 95C25.6472 95 5.5 74.8528 5.5 50Z" fill="#3C89E8"/>
<path d="M5.5 50C5.5 25.1472 25.6472 5 50.5 5C75.3528 5 95.5 25.1472 95.5 50C95.5 74.8528 75.3528 95 50.5 95C25.6472 95 5.5 74.8528 5.5 50Z" stroke="#112545" stroke-width="10"/>
<path d="M50.5 33.75C47.2861 33.75 44.1443 34.703 41.472 36.4886C38.7997 38.2742 36.7169 40.8121 35.487 43.7814C34.257 46.7507 33.9352 50.018 34.5622 53.1702C35.1893 56.3224 36.7369 59.2179 39.0095 61.4905C41.2821 63.7631 44.1776 65.3107 47.3298 65.9378C50.482 66.5648 53.7493 66.243 56.7186 65.013C59.6879 63.7831 62.2258 61.7003 64.0114 59.028C65.797 56.3557 66.75 53.2139 66.75 50C66.7455 45.6916 65.0319 41.561 61.9855 38.5145C58.939 35.4681 54.8084 33.7545 50.5 33.75ZM50.5 63.75C47.7805 63.75 45.1221 62.9436 42.8609 61.4327C40.5997 59.9218 38.8374 57.7744 37.7967 55.2619C36.756 52.7494 36.4837 49.9847 37.0142 47.3175C37.5448 44.6503 38.8543 42.2003 40.7773 40.2773C42.7003 38.3543 45.1503 37.0447 47.8175 36.5142C50.4848 35.9837 53.2494 36.256 55.7619 37.2967C58.2744 38.3374 60.4218 40.0997 61.9327 42.3609C63.4436 44.6221 64.25 47.2805 64.25 50C64.2459 53.6455 62.7959 57.1404 60.2182 59.7182C57.6404 62.2959 54.1455 63.7459 50.5 63.75ZM53 57.5C53 57.8315 52.8683 58.1495 52.6339 58.3839C52.3995 58.6183 52.0815 58.75 51.75 58.75C51.087 58.75 50.4511 58.4866 49.9822 58.0178C49.5134 57.5489 49.25 56.913 49.25 56.25V50C48.9185 50 48.6005 49.8683 48.3661 49.6339C48.1317 49.3995 48 49.0815 48 48.75C48 48.4185 48.1317 48.1005 48.3661 47.8661C48.6005 47.6317 48.9185 47.5 49.25 47.5C49.913 47.5 50.5489 47.7634 51.0178 48.2322C51.4866 48.7011 51.75 49.337 51.75 50V56.25C52.0815 56.25 52.3995 56.3817 52.6339 56.6161C52.8683 56.8505 53 57.1685 53 57.5ZM48 43.125C48 42.7542 48.11 42.3916 48.316 42.0833C48.522 41.775 48.8149 41.5346 49.1575 41.3927C49.5001 41.2508 49.8771 41.2137 50.2408 41.286C50.6045 41.3584 50.9386 41.537 51.2008 41.7992C51.4631 42.0614 51.6416 42.3955 51.714 42.7592C51.7863 43.1229 51.7492 43.4999 51.6073 43.8425C51.4654 44.1851 51.225 44.478 50.9167 44.684C50.6084 44.89 50.2458 45 49.875 45C49.3777 45 48.9008 44.8025 48.5492 44.4508C48.1976 44.0992 48 43.6223 48 43.125Z" fill="white"/>
</svg>
