<svg width="65" height="64" viewBox="0 0 65 64" fill="none" xmlns="http://www.w3.org/2000/svg">
<path d="M3.33337 32C3.33337 15.9837 16.3171 3 32.3334 3C48.3496 3 61.3334 15.9837 61.3334 32C61.3334 48.0163 48.3496 61 32.3334 61C16.3171 61 3.33337 48.0163 3.33337 32Z" fill="#9455FD"/>
<path d="M3.33337 32C3.33337 15.9837 16.3171 3 32.3334 3C48.3496 3 61.3334 15.9837 61.3334 32C61.3334 48.0163 48.3496 61 32.3334 61C16.3171 61 3.33337 48.0163 3.33337 32Z" stroke="#54189A" stroke-width="6"/>
<path d="M44.3334 25H42.3334V24C42.3334 23.2044 42.0173 22.4413 41.4547 21.8787C40.8921 21.3161 40.129 21 39.3334 21H21.3334C20.5377 21 19.7747 21.3161 19.2121 21.8787C18.6494 22.4413 18.3334 23.2044 18.3334 24V36C18.3334 36.7956 18.6494 37.5587 19.2121 38.1213C19.7747 38.6839 20.5377 39 21.3334 39H35.3334V40C35.3334 40.7956 35.6494 41.5587 36.2121 42.1213C36.7747 42.6839 37.5377 43 38.3334 43H44.3334C45.129 43 45.8921 42.6839 46.4547 42.1213C47.0173 41.5587 47.3334 40.7956 47.3334 40V28C47.3334 27.2044 47.0173 26.4413 46.4547 25.8787C45.8921 25.3161 45.129 25 44.3334 25ZM21.3334 37C21.0682 37 20.8138 36.8946 20.6263 36.7071C20.4387 36.5196 20.3334 36.2652 20.3334 36V24C20.3334 23.7348 20.4387 23.4804 20.6263 23.2929C20.8138 23.1054 21.0682 23 21.3334 23H39.3334C39.5986 23 39.8529 23.1054 40.0405 23.2929C40.228 23.4804 40.3334 23.7348 40.3334 24V25H38.3334C37.5377 25 36.7747 25.3161 36.2121 25.8787C35.6494 26.4413 35.3334 27.2044 35.3334 28V37H21.3334ZM45.3334 40C45.3334 40.2652 45.228 40.5196 45.0405 40.7071C44.8529 40.8946 44.5986 41 44.3334 41H38.3334C38.0682 41 37.8138 40.8946 37.6263 40.7071C37.4387 40.5196 37.3334 40.2652 37.3334 40V28C37.3334 27.7348 37.4387 27.4804 37.6263 27.2929C37.8138 27.1054 38.0682 27 38.3334 27H44.3334C44.5986 27 44.8529 27.1054 45.0405 27.2929C45.228 27.4804 45.3334 27.7348 45.3334 28V40ZM33.3334 42C33.3334 42.2652 33.228 42.5196 33.0405 42.7071C32.8529 42.8946 32.5986 43 32.3334 43H27.3334C27.0682 43 26.8138 42.8946 26.6263 42.7071C26.4387 42.5196 26.3334 42.2652 26.3334 42C26.3334 41.7348 26.4387 41.4804 26.6263 41.2929C26.8138 41.1054 27.0682 41 27.3334 41H32.3334C32.5986 41 32.8529 41.1054 33.0405 41.2929C33.228 41.4804 33.3334 41.7348 33.3334 42ZM43.3334 30C43.3334 30.2652 43.228 30.5196 43.0405 30.7071C42.8529 30.8946 42.5986 31 42.3334 31H40.3334C40.0682 31 39.8138 30.8946 39.6263 30.7071C39.4387 30.5196 39.3334 30.2652 39.3334 30C39.3334 29.7348 39.4387 29.4804 39.6263 29.2929C39.8138 29.1054 40.0682 29 40.3334 29H42.3334C42.5986 29 42.8529 29.1054 43.0405 29.2929C43.228 29.4804 43.3334 29.7348 43.3334 30Z" fill="white"/>
</svg>
