<svg width="64" height="64" viewBox="0 0 64 64" fill="none" xmlns="http://www.w3.org/2000/svg">
<mask id="path-1-outside-1_468_11349" maskUnits="userSpaceOnUse" x="0" y="0" width="64" height="64" fill="black">
<rect fill="white" width="64" height="64"/>
<path fill-rule="evenodd" clip-rule="evenodd" d="M58 32C58 46.3594 46.3594 58 32 58C17.6406 58 6 46.3594 6 32C6 17.6406 17.6406 6 32 6C46.3594 6 58 17.6406 58 32ZM42 25H44C44.7957 25 45.5587 25.3161 46.1213 25.8787C46.6839 26.4413 47 27.2044 47 28V40C47 40.7957 46.6839 41.5587 46.1213 42.1213C45.5587 42.6839 44.7957 43 44 43H38C37.2044 43 36.4413 42.6839 35.8787 42.1213C35.3161 41.5587 35 40.7957 35 40V39H21C20.2044 39 19.4413 38.6839 18.8787 38.1213C18.3161 37.5587 18 36.7956 18 36V24C18 23.2044 18.3161 22.4413 18.8787 21.8787C19.4413 21.3161 20.2044 21 21 21H39C39.7957 21 40.5587 21.3161 41.1213 21.8787C41.6839 22.4413 42 23.2044 42 24V25ZM20.2929 36.7071C20.4804 36.8946 20.7348 37 21 37H35V28C35 27.2044 35.3161 26.4413 35.8787 25.8787C36.4413 25.3161 37.2044 25 38 25H40V24C40 23.7348 39.8946 23.4804 39.7071 23.2929C39.5196 23.1054 39.2652 23 39 23H21C20.7348 23 20.4804 23.1054 20.2929 23.2929C20.1054 23.4804 20 23.7348 20 24V36C20 36.2652 20.1054 36.5196 20.2929 36.7071ZM44.7071 40.7071C44.8946 40.5196 45 40.2652 45 40V28C45 27.7348 44.8946 27.4804 44.7071 27.2929C44.5196 27.1054 44.2652 27 44 27H38C37.7348 27 37.4804 27.1054 37.2929 27.2929C37.1054 27.4804 37 27.7348 37 28V40C37 40.2652 37.1054 40.5196 37.2929 40.7071C37.4804 40.8946 37.7348 41 38 41H44C44.2652 41 44.5196 40.8946 44.7071 40.7071ZM32.7071 42.7071C32.8946 42.5196 33 42.2652 33 42C33 41.7348 32.8946 41.4804 32.7071 41.2929C32.5196 41.1054 32.2652 41 32 41H27C26.7348 41 26.4804 41.1054 26.2929 41.2929C26.1054 41.4804 26 41.7348 26 42C26 42.2652 26.1054 42.5196 26.2929 42.7071C26.4804 42.8946 26.7348 43 27 43H32C32.2652 43 32.5196 42.8946 32.7071 42.7071ZM42.7071 30.7071C42.8946 30.5196 43 30.2652 43 30C43 29.7348 42.8946 29.4804 42.7071 29.2929C42.5196 29.1054 42.2652 29 42 29H40C39.7348 29 39.4804 29.1054 39.2929 29.2929C39.1054 29.4804 39 29.7348 39 30C39 30.2652 39.1054 30.5196 39.2929 30.7071C39.4804 30.8946 39.7348 31 40 31H42C42.2652 31 42.5196 30.8946 42.7071 30.7071Z"/>
</mask>
<path fill-rule="evenodd" clip-rule="evenodd" d="M58 32C58 46.3594 46.3594 58 32 58C17.6406 58 6 46.3594 6 32C6 17.6406 17.6406 6 32 6C46.3594 6 58 17.6406 58 32ZM42 25H44C44.7957 25 45.5587 25.3161 46.1213 25.8787C46.6839 26.4413 47 27.2044 47 28V40C47 40.7957 46.6839 41.5587 46.1213 42.1213C45.5587 42.6839 44.7957 43 44 43H38C37.2044 43 36.4413 42.6839 35.8787 42.1213C35.3161 41.5587 35 40.7957 35 40V39H21C20.2044 39 19.4413 38.6839 18.8787 38.1213C18.3161 37.5587 18 36.7956 18 36V24C18 23.2044 18.3161 22.4413 18.8787 21.8787C19.4413 21.3161 20.2044 21 21 21H39C39.7957 21 40.5587 21.3161 41.1213 21.8787C41.6839 22.4413 42 23.2044 42 24V25ZM20.2929 36.7071C20.4804 36.8946 20.7348 37 21 37H35V28C35 27.2044 35.3161 26.4413 35.8787 25.8787C36.4413 25.3161 37.2044 25 38 25H40V24C40 23.7348 39.8946 23.4804 39.7071 23.2929C39.5196 23.1054 39.2652 23 39 23H21C20.7348 23 20.4804 23.1054 20.2929 23.2929C20.1054 23.4804 20 23.7348 20 24V36C20 36.2652 20.1054 36.5196 20.2929 36.7071ZM44.7071 40.7071C44.8946 40.5196 45 40.2652 45 40V28C45 27.7348 44.8946 27.4804 44.7071 27.2929C44.5196 27.1054 44.2652 27 44 27H38C37.7348 27 37.4804 27.1054 37.2929 27.2929C37.1054 27.4804 37 27.7348 37 28V40C37 40.2652 37.1054 40.5196 37.2929 40.7071C37.4804 40.8946 37.7348 41 38 41H44C44.2652 41 44.5196 40.8946 44.7071 40.7071ZM32.7071 42.7071C32.8946 42.5196 33 42.2652 33 42C33 41.7348 32.8946 41.4804 32.7071 41.2929C32.5196 41.1054 32.2652 41 32 41H27C26.7348 41 26.4804 41.1054 26.2929 41.2929C26.1054 41.4804 26 41.7348 26 42C26 42.2652 26.1054 42.5196 26.2929 42.7071C26.4804 42.8946 26.7348 43 27 43H32C32.2652 43 32.5196 42.8946 32.7071 42.7071ZM42.7071 30.7071C42.8946 30.5196 43 30.2652 43 30C43 29.7348 42.8946 29.4804 42.7071 29.2929C42.5196 29.1054 42.2652 29 42 29H40C39.7348 29 39.4804 29.1054 39.2929 29.2929C39.1054 29.4804 39 29.7348 39 30C39 30.2652 39.1054 30.5196 39.2929 30.7071C39.4804 30.8946 39.7348 31 40 31H42C42.2652 31 42.5196 30.8946 42.7071 30.7071Z" fill="#A377FF"/>
<path d="M42 25H36V31H42V25ZM46.1213 25.8787L50.364 21.636L50.364 21.636L46.1213 25.8787ZM46.1213 42.1213L50.3639 46.364L50.364 46.3639L46.1213 42.1213ZM35.8787 42.1213L31.636 46.364L31.636 46.364L35.8787 42.1213ZM35 39H41V33H35V39ZM18.8787 38.1213L14.636 42.364L14.636 42.364L18.8787 38.1213ZM18.8787 21.8787L14.636 17.636L14.636 17.636L18.8787 21.8787ZM41.1213 21.8787L45.364 17.636L45.364 17.636L41.1213 21.8787ZM35 37V43H41V37H35ZM40 25V31H46V25H40ZM39.7071 23.2929L43.9497 19.0503L43.9497 19.0502L39.7071 23.2929ZM20.2929 23.2929L16.0503 19.0503L16.0502 19.0503L20.2929 23.2929ZM44.7071 27.2929L48.9497 23.0503L48.9497 23.0502L44.7071 27.2929ZM37.2929 27.2929L33.0503 23.0503L33.0502 23.0503L37.2929 27.2929ZM26.2929 41.2929L22.0503 37.0503L22.0502 37.0503L26.2929 41.2929ZM26.2929 42.7071L22.0502 46.9497L22.0503 46.9497L26.2929 42.7071ZM42.7071 30.7071L46.9497 34.9498L46.9497 34.9497L42.7071 30.7071ZM42.7071 29.2929L46.9497 25.0503L46.9497 25.0502L42.7071 29.2929ZM39.2929 29.2929L35.0503 25.0502L35.0503 25.0503L39.2929 29.2929ZM39.2929 30.7071L35.0503 34.9497L35.0503 34.9498L39.2929 30.7071ZM32 64C49.6731 64 64 49.6731 64 32H52C52 43.0457 43.0457 52 32 52V64ZM0 32C0 49.6731 14.3269 64 32 64V52C20.9543 52 12 43.0457 12 32H0ZM32 0C14.3269 0 0 14.3269 0 32H12C12 20.9543 20.9543 12 32 12V0ZM64 32C64 14.3269 49.6731 0 32 0V12C43.0457 12 52 20.9543 52 32H64ZM44 19H42V31H44V19ZM50.364 21.636C48.6761 19.9482 46.387 19 44 19V31C43.2043 31 42.4413 30.6839 41.8787 30.1213L50.364 21.636ZM53 28C53 25.6131 52.0518 23.3239 50.364 21.636L41.8787 30.1213C41.3161 29.5587 41 28.7956 41 28H53ZM53 40V28H41V40H53ZM50.364 46.3639C52.0518 44.6761 53 42.3869 53 40H41C41 39.2044 41.3161 38.4413 41.8787 37.8787L50.364 46.3639ZM44 49C46.3869 49 48.6761 48.0518 50.3639 46.364L41.8787 37.8787C42.4413 37.3161 43.2044 37 44 37V49ZM38 49H44V37H38V49ZM31.636 46.364C33.3239 48.0518 35.6131 49 38 49V37C38.7956 37 39.5587 37.3161 40.1213 37.8787L31.636 46.364ZM29 40C29 42.387 29.9482 44.6761 31.636 46.364L40.1213 37.8787C40.6839 38.4413 41 39.2043 41 40H29ZM29 39V40H41V39H29ZM21 45H35V33H21V45ZM14.636 42.364C16.3239 44.0518 18.6131 45 21 45V33C21.7956 33 22.5587 33.3161 23.1213 33.8787L14.636 42.364ZM12 36C12 38.3869 12.9482 40.6761 14.636 42.364L23.1213 33.8787C23.6839 34.4413 24 35.2044 24 36H12ZM12 24V36H24V24H12ZM14.636 17.636C12.9482 19.3239 12 21.6131 12 24H24C24 24.7956 23.6839 25.5587 23.1213 26.1213L14.636 17.636ZM21 15C18.6131 15 16.3239 15.9482 14.636 17.636L23.1213 26.1213C22.5587 26.6839 21.7957 27 21 27V15ZM39 15H21V27H39V15ZM45.364 17.636C43.6761 15.9482 41.387 15 39 15V27C38.2043 27 37.4413 26.6839 36.8787 26.1213L45.364 17.636ZM48 24C48 21.6131 47.0518 19.3239 45.364 17.636L36.8787 26.1213C36.3161 25.5587 36 24.7956 36 24H48ZM48 25V24H36V25H48ZM21 31C22.3261 31 23.5978 31.5268 24.5355 32.4645L16.0503 40.9497C17.363 42.2625 19.1435 43 21 43V31ZM35 31H21V43H35V31ZM29 28V37H41V28H29ZM31.636 21.636C29.9482 23.3239 29 25.6131 29 28H41C41 28.7956 40.6839 29.5587 40.1213 30.1213L31.636 21.636ZM38 19C35.6131 19 33.3239 19.9482 31.636 21.636L40.1213 30.1213C39.5587 30.6839 38.7956 31 38 31V19ZM40 19H38V31H40V19ZM34 24V25H46V24H34ZM35.4645 27.5355C34.5268 26.5978 34 25.3261 34 24H46C46 22.1435 45.2625 20.363 43.9497 19.0503L35.4645 27.5355ZM39 29C37.6739 29 36.4022 28.4732 35.4645 27.5356L43.9497 19.0502C42.637 17.7375 40.8565 17 39 17V29ZM21 29H39V17H21V29ZM24.5355 27.5355C23.5978 28.4732 22.3261 29 21 29V17C19.1435 17 17.363 17.7375 16.0503 19.0503L24.5355 27.5355ZM26 24C26 25.3261 25.4732 26.5979 24.5356 27.5355L16.0502 19.0503C14.7375 20.363 14 22.1435 14 24H26ZM26 36V24H14V36H26ZM24.5355 32.4645C25.4732 33.4021 26 34.6739 26 36H14C14 37.8565 14.7375 39.637 16.0503 40.9497L24.5355 32.4645ZM39 40C39 38.6739 39.5268 37.4022 40.4645 36.4645L48.9497 44.9497C50.2625 43.637 51 41.8565 51 40H39ZM39 28V40H51V28H39ZM40.4645 31.5355C39.5268 30.5978 39 29.3261 39 28H51C51 26.1435 50.2625 24.363 48.9497 23.0503L40.4645 31.5355ZM44 33C42.6739 33 41.4022 32.4732 40.4645 31.5356L48.9497 23.0502C47.637 21.7375 45.8565 21 44 21V33ZM38 33H44V21H38V33ZM41.5355 31.5355C40.5978 32.4732 39.3261 33 38 33V21C36.1435 21 34.363 21.7375 33.0503 23.0503L41.5355 31.5355ZM43 28C43 29.3261 42.4732 30.5978 41.5356 31.5355L33.0502 23.0503C31.7375 24.363 31 26.1435 31 28H43ZM43 40V28H31V40H43ZM41.5356 36.4645C42.4732 37.4022 43 38.6739 43 40H31C31 41.8565 31.7375 43.637 33.0502 44.9497L41.5356 36.4645ZM38 35C39.326 35 40.5978 35.5268 41.5356 36.4645L33.0502 44.9497C34.363 46.2625 36.1435 47 38 47V35ZM44 35H38V47H44V35ZM40.4645 36.4645C41.4022 35.5268 42.6739 35 44 35V47C45.8565 47 47.637 46.2625 48.9497 44.9497L40.4645 36.4645ZM27 42C27 40.6739 27.5268 39.4022 28.4644 38.4645L36.9498 46.9497C38.2625 45.637 39 43.8565 39 42H27ZM28.4644 45.5355C27.5268 44.5978 27 43.3261 27 42H39C39 40.1435 38.2625 38.363 36.9498 37.0503L28.4644 45.5355ZM32 47C30.674 47 29.4022 46.4732 28.4644 45.5355L36.9498 37.0503C35.637 35.7375 33.8565 35 32 35V47ZM27 47H32V35H27V47ZM30.5355 45.5355C29.5978 46.4732 28.3261 47 27 47V35C25.1435 35 23.363 35.7375 22.0503 37.0503L30.5355 45.5355ZM32 42C32 43.3261 31.4732 44.5978 30.5356 45.5355L22.0502 37.0503C20.7375 38.363 20 40.1435 20 42H32ZM30.5356 38.4645C31.4732 39.4022 32 40.6739 32 42H20C20 43.8565 20.7375 45.637 22.0502 46.9497L30.5356 38.4645ZM27 37C28.3261 37 29.5978 37.5268 30.5355 38.4645L22.0503 46.9497C23.363 48.2625 25.1435 49 27 49V37ZM32 37H27V49H32V37ZM28.4644 38.4645C29.4022 37.5268 30.674 37 32 37V49C33.8565 49 35.637 48.2625 36.9498 46.9497L28.4644 38.4645ZM37 30C37 28.6739 37.5268 27.4022 38.4645 26.4645L46.9497 34.9497C48.2625 33.637 49 31.8565 49 30H37ZM38.4645 33.5355C37.5268 32.5978 37 31.3261 37 30H49C49 28.1435 48.2625 26.363 46.9497 25.0503L38.4645 33.5355ZM42 35C40.6739 35 39.4022 34.4732 38.4645 33.5356L46.9497 25.0502C45.637 23.7375 43.8565 23 42 23V35ZM40 35H42V23H40V35ZM43.5355 33.5356C42.5978 34.4732 41.3261 35 40 35V23C38.1435 23 36.363 23.7375 35.0503 25.0502L43.5355 33.5356ZM45 30C45 31.3261 44.4732 32.5978 43.5355 33.5355L35.0503 25.0503C33.7375 26.363 33 28.1435 33 30H45ZM43.5355 26.4645C44.4732 27.4022 45 28.6739 45 30H33C33 31.8565 33.7375 33.637 35.0503 34.9497L43.5355 26.4645ZM40 25C41.3261 25 42.5978 25.5268 43.5355 26.4644L35.0503 34.9498C36.363 36.2625 38.1435 37 40 37V25ZM42 25H40V37H42V25ZM38.4645 26.4644C39.4022 25.5268 40.6739 25 42 25V37C43.8565 37 45.637 36.2625 46.9497 34.9498L38.4645 26.4644Z" fill="#F3EEFF" mask="url(#path-1-outside-1_468_11349)"/>
</svg>
