<svg width="101" height="100" viewBox="0 0 101 100" fill="none" xmlns="http://www.w3.org/2000/svg">
<path d="M5.5 50C5.5 25.1472 25.6472 5 50.5 5C75.3528 5 95.5 25.1472 95.5 50C95.5 74.8528 75.3528 95 50.5 95C25.6472 95 5.5 74.8528 5.5 50Z" fill="#45C281"/>
<path d="M5.5 50C5.5 25.1472 25.6472 5 50.5 5C75.3528 5 95.5 25.1472 95.5 50C95.5 74.8528 75.3528 95 50.5 95C25.6472 95 5.5 74.8528 5.5 50Z" stroke="#0E462F" stroke-width="10"/>
<path d="M66.3851 42.1344L46.3851 62.1344C46.269 62.2506 46.1311 62.3428 45.9794 62.4057C45.8276 62.4686 45.665 62.501 45.5007 62.501C45.3364 62.501 45.1738 62.4686 45.022 62.4057C44.8703 62.3428 44.7324 62.2506 44.6163 62.1344L35.8663 53.3844C35.6318 53.1498 35.5 52.8317 35.5 52.5C35.5 52.1683 35.6318 51.8502 35.8663 51.6156C36.1009 51.3811 36.419 51.2493 36.7507 51.2493C37.0824 51.2493 37.4005 51.3811 37.6351 51.6156L45.5007 59.4828L64.6163 40.3656C64.8509 40.1311 65.169 39.9993 65.5007 39.9993C65.8324 39.9993 66.1505 40.1311 66.3851 40.3656C66.6196 40.6002 66.7514 40.9183 66.7514 41.25C66.7514 41.5817 66.6196 41.8998 66.3851 42.1344Z" fill="#06281B"/>
</svg>
