<svg width="64" height="64" viewBox="0 0 64 64" fill="none" xmlns="http://www.w3.org/2000/svg">
<mask id="path-1-outside-1_468_11355" maskUnits="userSpaceOnUse" x="0" y="0" width="64" height="64" fill="black">
<rect fill="white" width="64" height="64"/>
<path fill-rule="evenodd" clip-rule="evenodd" d="M58 32C58 46.3594 46.3594 58 32 58C17.6406 58 6 46.3594 6 32C6 17.6406 17.6406 6 32 6C46.3594 6 58 17.6406 58 32ZM32.2535 18.3566L42.7955 31.4237C42.928 31.588 43 31.791 43 32C43 32.209 42.928 32.412 42.7955 32.5763L32.2535 45.6434C32.1638 45.7545 32.0494 45.8443 31.9189 45.9061C31.7884 45.9679 31.6451 46 31.5 46C31.3549 46 31.2116 45.9679 31.0811 45.9061C30.9506 45.8443 30.8362 45.7545 30.7465 45.6434L20.2045 32.5763C20.072 32.412 20 32.209 20 32C20 31.791 20.072 31.588 20.2045 31.4237L30.7465 18.3566C30.8362 18.2455 30.9506 18.1557 31.0811 18.0939C31.2116 18.0321 31.3549 18 31.5 18C31.6451 18 31.7884 18.0321 31.9189 18.0939C32.0494 18.1557 32.1638 18.2455 32.2535 18.3566ZM40.5349 31.6418L32.4584 21.6316V35.2178L40.5349 31.6418ZM22.4651 31.6418L30.5416 35.2178V21.6316L22.4651 31.6418ZM30.5416 42.3684V37.2676L24.141 34.4349L30.5416 42.3684ZM38.859 34.4337L32.4584 37.2676V42.3673L38.859 34.4337Z"/>
</mask>
<path fill-rule="evenodd" clip-rule="evenodd" d="M58 32C58 46.3594 46.3594 58 32 58C17.6406 58 6 46.3594 6 32C6 17.6406 17.6406 6 32 6C46.3594 6 58 17.6406 58 32ZM32.2535 18.3566L42.7955 31.4237C42.928 31.588 43 31.791 43 32C43 32.209 42.928 32.412 42.7955 32.5763L32.2535 45.6434C32.1638 45.7545 32.0494 45.8443 31.9189 45.9061C31.7884 45.9679 31.6451 46 31.5 46C31.3549 46 31.2116 45.9679 31.0811 45.9061C30.9506 45.8443 30.8362 45.7545 30.7465 45.6434L20.2045 32.5763C20.072 32.412 20 32.209 20 32C20 31.791 20.072 31.588 20.2045 31.4237L30.7465 18.3566C30.8362 18.2455 30.9506 18.1557 31.0811 18.0939C31.2116 18.0321 31.3549 18 31.5 18C31.6451 18 31.7884 18.0321 31.9189 18.0939C32.0494 18.1557 32.1638 18.2455 32.2535 18.3566ZM40.5349 31.6418L32.4584 21.6316V35.2178L40.5349 31.6418ZM22.4651 31.6418L30.5416 35.2178V21.6316L22.4651 31.6418ZM30.5416 42.3684V37.2676L24.141 34.4349L30.5416 42.3684ZM38.859 34.4337L32.4584 37.2676V42.3673L38.859 34.4337Z" fill="#F97316"/>
<path d="M42.7955 31.4237L47.4668 27.6582L47.4652 27.6563L42.7955 31.4237ZM32.2535 18.3566L36.9233 14.5892L36.9228 14.5887L32.2535 18.3566ZM42.7955 32.5763L47.4652 36.3437L47.4668 36.3418L42.7955 32.5763ZM32.2535 45.6434L36.9229 49.4113L36.9233 49.4108L32.2535 45.6434ZM30.7465 45.6434L26.0767 49.4108L26.0771 49.4113L30.7465 45.6434ZM20.2045 32.5763L15.5332 36.3418L15.5348 36.3437L20.2045 32.5763ZM20.2045 31.4237L15.5348 27.6563L15.5332 27.6582L20.2045 31.4237ZM30.7465 18.3566L26.0772 14.5887L26.0767 14.5892L30.7465 18.3566ZM31.0811 18.0939L33.6479 23.5171L33.6479 23.5171L31.0811 18.0939ZM31.9189 18.0939L29.3521 23.5171L29.3521 23.5171L31.9189 18.0939ZM32.4584 21.6316L37.128 17.864L26.4584 4.63982V21.6316H32.4584ZM40.5349 31.6418L42.964 37.1281L50.116 33.9616L45.2045 27.8742L40.5349 31.6418ZM32.4584 35.2178H26.4584V44.4361L34.8874 40.7041L32.4584 35.2178ZM30.5416 35.2178L28.1126 40.7041L36.5416 44.4361V35.2178H30.5416ZM22.4651 31.6418L17.7955 27.8742L12.884 33.9616L20.036 37.1281L22.4651 31.6418ZM30.5416 21.6316H36.5416V4.63982L25.872 17.864L30.5416 21.6316ZM30.5416 37.2676H36.5416V33.3617L32.9699 31.781L30.5416 37.2676ZM30.5416 42.3684L25.8719 46.1359L36.5416 59.3609V42.3684H30.5416ZM24.141 34.4349L26.5693 28.9482L19.4713 38.2023L24.141 34.4349ZM32.4584 37.2676L30.0293 31.7813L26.4584 33.3624V37.2676H32.4584ZM38.859 34.4337L43.5287 38.2012L36.4299 28.9474L38.859 34.4337ZM32.4584 42.3673H26.4584V59.3598L37.1281 46.1347L32.4584 42.3673ZM32 64C49.6731 64 64 49.6731 64 32H52C52 43.0457 43.0457 52 32 52V64ZM0 32C0 49.6731 14.3269 64 32 64V52C20.9543 52 12 43.0457 12 32H0ZM32 0C14.3269 0 0 14.3269 0 32H12C12 20.9543 20.9543 12 32 12V0ZM64 32C64 14.3269 49.6731 0 32 0V12C43.0457 12 52 20.9543 52 32H64ZM47.4652 27.6563L36.9233 14.5892L27.5837 22.124L38.1257 35.191L47.4652 27.6563ZM49 32C49 30.4056 48.4494 28.8772 47.4668 27.6582L38.1241 35.1891C37.4065 34.2989 37 33.1764 37 32H49ZM47.4668 36.3418C48.4494 35.1228 49 33.5944 49 32H37C37 30.8236 37.4065 29.7011 38.1241 28.8109L47.4668 36.3418ZM36.9233 49.4108L47.4652 36.3437L38.1257 28.809L27.5837 41.876L36.9233 49.4108ZM34.4857 51.3294C35.4232 50.8857 36.2593 50.2336 36.9229 49.4113L27.5842 41.8755C28.0684 41.2754 28.6757 40.803 29.3521 40.4829L34.4857 51.3294ZM31.5 52C32.5283 52 33.5486 51.7729 34.4857 51.3294L29.3521 40.4829C30.0281 40.1629 30.762 40 31.5 40V52ZM28.5143 51.3294C29.4513 51.7729 30.4717 52 31.5 52V40C32.2381 40 32.9719 40.1629 33.6479 40.4829L28.5143 51.3294ZM26.0771 49.4113C26.7408 50.2337 27.5769 50.8857 28.5143 51.3294L33.6479 40.4829C34.3243 40.803 34.9315 41.2753 35.4158 41.8755L26.0771 49.4113ZM15.5348 36.3437L26.0767 49.4108L35.4163 41.876L24.8743 28.809L15.5348 36.3437ZM14 32C14 33.5943 14.5505 35.1227 15.5332 36.3418L24.8759 28.8109C25.5935 29.7012 26 30.8237 26 32H14ZM15.5332 27.6582C14.5505 28.8773 14 30.4057 14 32H26C26 33.1763 25.5935 34.2988 24.8759 35.1891L15.5332 27.6582ZM26.0767 14.5892L15.5348 27.6563L24.8743 35.191L35.4163 22.124L26.0767 14.5892ZM28.5143 12.6706C27.5769 13.1143 26.7407 13.7664 26.0772 14.5887L35.4158 22.1246C34.9316 22.7246 34.3243 23.197 33.6479 23.5171L28.5143 12.6706ZM31.5 12C30.4717 12 29.4514 12.2271 28.5143 12.6706L33.6479 23.5171C32.9719 23.8371 32.238 24 31.5 24V12ZM34.4857 12.6706C33.5486 12.2271 32.5283 12 31.5 12V24C30.762 24 30.0281 23.8371 29.3521 23.5171L34.4857 12.6706ZM36.9228 14.5887C36.2593 13.7664 35.4232 13.1144 34.4857 12.6706L29.3521 23.5171C28.6756 23.197 28.0684 22.7246 27.5842 22.1246L36.9228 14.5887ZM27.7887 25.3991L35.8653 35.4094L45.2045 27.8742L37.128 17.864L27.7887 25.3991ZM38.4584 35.2178V21.6316H26.4584V35.2178H38.4584ZM38.1058 26.1555L30.0293 29.7314L34.8874 40.7041L42.964 37.1281L38.1058 26.1555ZM32.9707 29.7314L24.8942 26.1555L20.036 37.1281L28.1126 40.7041L32.9707 29.7314ZM24.5416 21.6316V35.2178H36.5416V21.6316H24.5416ZM27.1347 35.4094L35.2113 25.3991L25.872 17.864L17.7955 27.8742L27.1347 35.4094ZM24.5416 37.2676V42.3684H36.5416V37.2676H24.5416ZM21.7128 39.9216L28.1134 42.7543L32.9699 31.781L26.5693 28.9482L21.7128 39.9216ZM35.2114 38.601L28.8107 30.6674L19.4713 38.2023L25.8719 46.1359L35.2114 38.601ZM34.8874 42.7539L41.2881 39.92L36.4299 28.9474L30.0293 31.7813L34.8874 42.7539ZM38.4584 42.3673V37.2676H26.4584V42.3673H38.4584ZM34.1893 30.6663L27.7886 38.5998L37.1281 46.1347L43.5287 38.2012L34.1893 30.6663Z" fill="#FFF7ED" mask="url(#path-1-outside-1_468_11355)"/>
</svg>
