<svg width="102" height="102" viewBox="0 0 102 102" fill="none" xmlns="http://www.w3.org/2000/svg">
<path d="M50.512 47.4214L50.9534 46.6609C50.9692 46.6603 50.985 46.66 51.0008 46.66C51.0187 46.66 51.0367 46.6604 51.0546 46.6611L50.512 47.4214ZM50.512 47.4214L50.2342 47.9L49.7508 48.7327L50.512 47.4214ZM51.0008 50.3399C51.4294 50.3399 51.8519 50.4136 52.2507 50.5549V51.445C51.8519 51.5863 51.4294 51.66 51.0008 51.66C50.5721 51.66 50.1496 51.5863 49.7508 51.445V50.5549C50.1496 50.4136 50.5721 50.3399 51.0008 50.3399ZM50.75 96.5C76.017 96.5 96.5 76.017 96.5 50.75C96.5 25.483 76.017 5 50.75 5C25.483 5 5 25.483 5 50.75C5 76.017 25.483 96.5 50.75 96.5Z" fill="#E87040" stroke="#441D12" stroke-width="10"/>
</svg>
