<svg width="65" height="64" viewBox="0 0 65 64" fill="none" xmlns="http://www.w3.org/2000/svg">
<mask id="path-1-outside-1_468_11361" maskUnits="userSpaceOnUse" x="0.666656" y="0" width="64" height="64" fill="black">
<rect fill="white" x="0.666656" width="64" height="64"/>
<path fill-rule="evenodd" clip-rule="evenodd" d="M58.6667 32C58.6667 46.3594 47.0261 58 32.6667 58C18.3073 58 6.66666 46.3594 6.66666 32C6.66666 17.6406 18.3073 6 32.6667 6C47.0261 6 58.6667 17.6406 58.6667 32ZM43.6667 36H44.6667C44.9319 36 45.1862 36.1054 45.3738 36.2929C45.5613 36.4804 45.6667 36.7348 45.6667 37V42C45.6667 42.2652 45.5613 42.5196 45.3738 42.7071C45.1862 42.8947 44.9319 43 44.6667 43H35.6667C35.4014 43 35.1471 42.8947 34.9595 42.7071C34.772 42.5196 34.6667 42.2652 34.6667 42V37C34.6667 36.7348 34.772 36.4804 34.9595 36.2929C35.1471 36.1054 35.4014 36 35.6667 36H36.6667V35.5C36.6667 34.5718 37.0354 33.6815 37.6918 33.0251C38.3482 32.3688 39.2384 32 40.1667 32C41.0949 32 41.9852 32.3688 42.6415 33.0251C43.2979 33.6815 43.6667 34.5718 43.6667 35.5V36ZM39.106 34.4394C38.8247 34.7207 38.6667 35.1022 38.6667 35.5V36H41.6667V35.5C41.6667 35.1022 41.5086 34.7207 41.2273 34.4394C40.946 34.158 40.5645 34 40.1667 34C39.7688 34 39.3873 34.158 39.106 34.4394ZM36.6667 38V41H43.6667V38H36.6667ZM33.0804 25H43.6667C44.1971 25 44.7058 25.2107 45.0809 25.5858C45.4559 25.9609 45.6667 26.4696 45.6667 27V29C45.6667 29.2652 45.5613 29.5196 45.3738 29.7071C45.1862 29.8947 44.9319 30 44.6667 30C44.4014 30 44.1471 29.8947 43.9595 29.7071C43.772 29.5196 43.6667 29.2652 43.6667 29V27H21.6667V41H30.7367C31.0019 41 31.2562 41.1054 31.4438 41.2929C31.6313 41.4804 31.7367 41.7348 31.7367 42C31.7367 42.2652 31.6313 42.5196 31.4438 42.7071C31.2562 42.8947 31.0019 43 30.7367 43H21.5892C21.0795 42.9993 20.5909 42.7966 20.2305 42.4362C19.8701 42.0758 19.6673 41.5872 19.6667 41.0775V23C19.6667 22.4696 19.8774 21.9609 20.2524 21.5858C20.6275 21.2107 21.1362 21 21.6667 21H28.2529C28.5156 20.9992 28.7759 21.0506 29.0186 21.1512C29.2613 21.2519 29.4816 21.3997 29.6667 21.5863L33.0804 25ZM30.2529 25L28.2529 23H21.6667V25H30.2529Z"/>
</mask>
<path fill-rule="evenodd" clip-rule="evenodd" d="M58.6667 32C58.6667 46.3594 47.0261 58 32.6667 58C18.3073 58 6.66666 46.3594 6.66666 32C6.66666 17.6406 18.3073 6 32.6667 6C47.0261 6 58.6667 17.6406 58.6667 32ZM43.6667 36H44.6667C44.9319 36 45.1862 36.1054 45.3738 36.2929C45.5613 36.4804 45.6667 36.7348 45.6667 37V42C45.6667 42.2652 45.5613 42.5196 45.3738 42.7071C45.1862 42.8947 44.9319 43 44.6667 43H35.6667C35.4014 43 35.1471 42.8947 34.9595 42.7071C34.772 42.5196 34.6667 42.2652 34.6667 42V37C34.6667 36.7348 34.772 36.4804 34.9595 36.2929C35.1471 36.1054 35.4014 36 35.6667 36H36.6667V35.5C36.6667 34.5718 37.0354 33.6815 37.6918 33.0251C38.3482 32.3688 39.2384 32 40.1667 32C41.0949 32 41.9852 32.3688 42.6415 33.0251C43.2979 33.6815 43.6667 34.5718 43.6667 35.5V36ZM39.106 34.4394C38.8247 34.7207 38.6667 35.1022 38.6667 35.5V36H41.6667V35.5C41.6667 35.1022 41.5086 34.7207 41.2273 34.4394C40.946 34.158 40.5645 34 40.1667 34C39.7688 34 39.3873 34.158 39.106 34.4394ZM36.6667 38V41H43.6667V38H36.6667ZM33.0804 25H43.6667C44.1971 25 44.7058 25.2107 45.0809 25.5858C45.4559 25.9609 45.6667 26.4696 45.6667 27V29C45.6667 29.2652 45.5613 29.5196 45.3738 29.7071C45.1862 29.8947 44.9319 30 44.6667 30C44.4014 30 44.1471 29.8947 43.9595 29.7071C43.772 29.5196 43.6667 29.2652 43.6667 29V27H21.6667V41H30.7367C31.0019 41 31.2562 41.1054 31.4438 41.2929C31.6313 41.4804 31.7367 41.7348 31.7367 42C31.7367 42.2652 31.6313 42.5196 31.4438 42.7071C31.2562 42.8947 31.0019 43 30.7367 43H21.5892C21.0795 42.9993 20.5909 42.7966 20.2305 42.4362C19.8701 42.0758 19.6673 41.5872 19.6667 41.0775V23C19.6667 22.4696 19.8774 21.9609 20.2524 21.5858C20.6275 21.2107 21.1362 21 21.6667 21H28.2529C28.5156 20.9992 28.7759 21.0506 29.0186 21.1512C29.2613 21.2519 29.4816 21.3997 29.6667 21.5863L33.0804 25ZM30.2529 25L28.2529 23H21.6667V25H30.2529Z" fill="#26BA73"/>
<path d="M43.6667 36H37.6667V42H43.6667V36ZM45.3738 36.2929L41.1311 40.5355L41.1311 40.5356L45.3738 36.2929ZM45.3738 42.7071L41.1312 38.4644L41.1311 38.4645L45.3738 42.7071ZM34.9595 42.7071L39.2022 38.4645L39.2022 38.4645L34.9595 42.7071ZM34.9595 36.2929L39.2022 40.5355L39.2022 40.5355L34.9595 36.2929ZM36.6667 36V42H42.6667V36H36.6667ZM37.6918 33.0251L33.4491 28.7825L33.4491 28.7825L37.6918 33.0251ZM42.6415 33.0251L46.8842 28.7825L46.8842 28.7825L42.6415 33.0251ZM39.106 34.4394L34.8634 30.1967L34.8633 30.1967L39.106 34.4394ZM38.6667 36H32.6667V42H38.6667V36ZM41.6667 36V42H47.6667V36H41.6667ZM41.2273 34.4394L45.47 30.1967L45.4699 30.1967L41.2273 34.4394ZM36.6667 41H30.6667V47H36.6667V41ZM36.6667 38V32H30.6667V38H36.6667ZM43.6667 41V47H49.6667V41H43.6667ZM43.6667 38H49.6667V32H43.6667V38ZM33.0804 25L28.8378 29.2427L30.5951 31H33.0804V25ZM45.0809 25.5858L49.3235 21.3432L49.3235 21.3431L45.0809 25.5858ZM43.6667 27H49.6667V21H43.6667V27ZM21.6667 27V21H15.6667V27H21.6667ZM21.6667 41H15.6667V47H21.6667V41ZM31.4438 41.2929L35.6864 37.0503L35.6864 37.0502L31.4438 41.2929ZM31.4438 42.7071L27.2011 38.4645L27.2011 38.4645L31.4438 42.7071ZM21.5892 43L21.5814 49H21.5892V43ZM19.6667 41.0775H13.6667L13.6667 41.0853L19.6667 41.0775ZM20.2524 21.5858L24.4951 25.8284L24.4951 25.8284L20.2524 21.5858ZM28.2529 21V27H28.2625L28.2721 27L28.2529 21ZM29.6667 21.5863L25.4072 25.812L25.4156 25.8204L25.424 25.8289L29.6667 21.5863ZM28.2529 23L32.4955 18.7574L30.7382 17H28.2529V23ZM30.2529 25V31H44.7382L34.4955 20.7574L30.2529 25ZM21.6667 23V17H15.6667V23H21.6667ZM21.6667 25H15.6667V31H21.6667V25ZM32.6667 64C50.3398 64 64.6667 49.6731 64.6667 32H52.6667C52.6667 43.0457 43.7123 52 32.6667 52V64ZM0.666656 32C0.666656 49.6731 14.9935 64 32.6667 64V52C21.621 52 12.6667 43.0457 12.6667 32H0.666656ZM32.6667 0C14.9935 0 0.666656 14.3269 0.666656 32H12.6667C12.6667 20.9543 21.621 12 32.6667 12V0ZM64.6667 32C64.6667 14.3269 50.3398 0 32.6667 0V12C43.7123 12 52.6667 20.9543 52.6667 32H64.6667ZM44.6667 30H43.6667V42H44.6667V30ZM49.6164 32.0503C48.3036 30.7375 46.5231 30 44.6667 30V42C43.3406 42 42.0688 41.4732 41.1311 40.5355L49.6164 32.0503ZM51.6667 37C51.6667 35.1435 50.9292 33.363 49.6164 32.0502L41.1311 40.5356C40.1934 39.5979 39.6667 38.3261 39.6667 37H51.6667ZM51.6667 42V37H39.6667V42H51.6667ZM49.6164 46.9498C50.9292 45.637 51.6667 43.8565 51.6667 42H39.6667C39.6667 40.674 40.1934 39.4022 41.1312 38.4644L49.6164 46.9498ZM44.6667 49C46.5231 49 48.3036 48.2625 49.6164 46.9498L41.1311 38.4645C42.0688 37.5268 43.3406 37 44.6667 37V49ZM35.6667 49H44.6667V37H35.6667V49ZM30.7169 46.9497C32.0297 48.2625 33.8102 49 35.6667 49V37C36.9927 37 38.2645 37.5268 39.2022 38.4645L30.7169 46.9497ZM28.6667 42C28.6667 43.8565 29.4041 45.637 30.7169 46.9498L39.2022 38.4645C40.1399 39.4022 40.6667 40.674 40.6667 42H28.6667ZM28.6667 37V42H40.6667V37H28.6667ZM30.7169 32.0503C29.4042 33.363 28.6667 35.1435 28.6667 37H40.6667C40.6667 38.3261 40.1399 39.5979 39.2022 40.5355L30.7169 32.0503ZM35.6667 30C33.8102 30 32.0297 30.7375 30.7169 32.0503L39.2022 40.5355C38.2645 41.4733 36.9927 42 35.6667 42V30ZM36.6667 30H35.6667V42H36.6667V30ZM30.6667 35.5V36H42.6667V35.5H30.6667ZM33.4491 28.7825C31.6675 30.5641 30.6667 32.9805 30.6667 35.5H42.6667C42.6667 36.163 42.4033 36.7989 41.9344 37.2678L33.4491 28.7825ZM40.1667 26C37.6471 26 35.2307 27.0009 33.4491 28.7825L41.9344 37.2678C41.4656 37.7366 40.8297 38 40.1667 38V26ZM46.8842 28.7825C45.1026 27.0009 42.6862 26 40.1667 26V38C39.5036 38 38.8677 37.7366 38.3989 37.2678L46.8842 28.7825ZM49.6667 35.5C49.6667 32.9805 48.6658 30.5641 46.8842 28.7825L38.3989 37.2678C37.93 36.7989 37.6667 36.163 37.6667 35.5H49.6667ZM49.6667 36V35.5H37.6667V36H49.6667ZM44.6667 35.5C44.6667 36.6935 44.1926 37.8381 43.3487 38.682L34.8633 30.1967C33.4568 31.6032 32.6667 33.5109 32.6667 35.5H44.6667ZM44.6667 36V35.5H32.6667V36H44.6667ZM41.6667 30H38.6667V42H41.6667V30ZM35.6667 35.5V36H47.6667V35.5H35.6667ZM36.9847 38.682C36.1408 37.8381 35.6667 36.6935 35.6667 35.5H47.6667C47.6667 33.5109 46.8765 31.6032 45.47 30.1967L36.9847 38.682ZM40.1667 40C38.9732 40 37.8286 39.5259 36.9847 38.682L45.4699 30.1967C44.0634 28.7902 42.1558 28 40.1667 28V40ZM43.3486 38.682C42.5047 39.5259 41.3601 40 40.1667 40V28C38.1775 28 36.2699 28.7902 34.8634 30.1967L43.3486 38.682ZM42.6667 41V38H30.6667V41H42.6667ZM43.6667 35H36.6667V47H43.6667V35ZM37.6667 38V41H49.6667V38H37.6667ZM36.6667 44H43.6667V32H36.6667V44ZM43.6667 19H33.0804V31H43.6667V19ZM49.3235 21.3431C47.8232 19.8429 45.7884 19 43.6667 19V31C42.6058 31 41.5884 30.5786 40.8383 29.8285L49.3235 21.3431ZM51.6667 27C51.6667 24.8783 50.8238 22.8435 49.3235 21.3432L40.8382 29.8284C40.0881 29.0783 39.6667 28.0609 39.6667 27H51.6667ZM51.6667 29V27H39.6667V29H51.6667ZM49.6164 33.9498C50.9292 32.637 51.6667 30.8565 51.6667 29H39.6667C39.6667 27.674 40.1934 26.4022 41.1311 25.4645L49.6164 33.9498ZM44.6667 36C46.5232 36 48.3037 35.2625 49.6164 33.9498L41.1311 25.4645C42.0688 24.5268 43.3405 24 44.6667 24V36ZM39.7169 33.9498C41.0297 35.2625 42.8101 36 44.6667 36V24C45.9928 24 47.2645 24.5268 48.2022 25.4645L39.7169 33.9498ZM37.6667 29C37.6667 30.8565 38.4041 32.637 39.7169 33.9498L48.2022 25.4645C49.1399 26.4022 49.6667 27.674 49.6667 29H37.6667ZM37.6667 27V29H49.6667V27H37.6667ZM21.6667 33H43.6667V21H21.6667V33ZM27.6667 41V27H15.6667V41H27.6667ZM30.7367 35H21.6667V47H30.7367V35ZM35.6864 37.0502C34.3736 35.7375 32.5932 35 30.7367 35V47C29.4106 47 28.1388 46.4732 27.2011 45.5356L35.6864 37.0502ZM37.7367 42C37.7367 40.1435 36.9992 38.363 35.6864 37.0503L27.2011 45.5355C26.2634 44.5978 25.7367 43.3261 25.7367 42H37.7367ZM35.6864 46.9498C36.9992 45.637 37.7367 43.8565 37.7367 42H25.7367C25.7367 40.674 26.2634 39.4022 27.2011 38.4645L35.6864 46.9498ZM30.7367 49C32.5931 49 34.3736 48.2625 35.6864 46.9497L27.2011 38.4645C28.1388 37.5268 29.4106 37 30.7367 37V49ZM21.5892 49H30.7367V37H21.5892V49ZM15.9878 46.6788C17.4715 48.1625 19.4831 48.9973 21.5814 49L21.5969 37C22.6759 37.0014 23.7102 37.4306 24.4731 38.1935L15.9878 46.6788ZM13.6667 41.0853C13.6694 43.1836 14.5041 45.1951 15.9878 46.6788L24.4731 38.1935C25.236 38.9565 25.6653 39.9908 25.6667 41.0697L13.6667 41.0853ZM13.6667 23V41.0775H25.6667V23H13.6667ZM16.0098 17.3432C14.5095 18.8434 13.6667 20.8783 13.6667 23H25.6667C25.6667 24.0609 25.2452 25.0783 24.4951 25.8284L16.0098 17.3432ZM21.6667 15C19.5449 15 17.5101 15.8429 16.0098 17.3432L24.4951 25.8284C23.7449 26.5786 22.7275 27 21.6667 27V15ZM28.2529 15H21.6667V27H28.2529V15ZM31.3169 15.6088C30.3397 15.2036 29.2917 14.9967 28.2337 15L28.2721 27C27.7396 27.0017 27.2122 26.8975 26.7203 26.6936L31.3169 15.6088ZM33.9262 17.3606C33.1811 16.6095 32.2942 16.0141 31.3169 15.6088L26.7203 26.6936C26.2285 26.4896 25.7821 26.1899 25.4072 25.812L33.9262 17.3606ZM37.323 20.7574L33.9093 17.3436L25.424 25.8289L28.8378 29.2427L37.323 20.7574ZM24.0103 27.2427L26.0103 29.2427L34.4955 20.7574L32.4955 18.7574L24.0103 27.2427ZM21.6667 29H28.2529V17H21.6667V29ZM27.6667 25V23H15.6667V25H27.6667ZM30.2529 19H21.6667V31H30.2529V19Z" fill="#EEFBF3" mask="url(#path-1-outside-1_468_11361)"/>
</svg>
