<svg width="65" height="64" viewBox="0 0 65 64" fill="none" xmlns="http://www.w3.org/2000/svg">
<path d="M3.66663 32C3.66663 15.9837 16.6504 3 32.6666 3C48.6829 3 61.6666 15.9837 61.6666 32C61.6666 48.0163 48.6829 61 32.6666 61C16.6504 61 3.66663 48.0163 3.66663 32Z" fill="#45C281"/>
<path d="M3.66663 32C3.66663 15.9837 16.6504 3 32.6666 3C48.6829 3 61.6666 15.9837 61.6666 32C61.6666 48.0163 48.6829 61 32.6666 61C16.6504 61 3.66663 48.0163 3.66663 32Z" stroke="#0E462F" stroke-width="6"/>
<path d="M45.6666 27V29C45.6666 29.2652 45.5613 29.5196 45.3737 29.7071C45.1862 29.8946 44.9318 30 44.6666 30C44.4014 30 44.1471 29.8946 43.9595 29.7071C43.772 29.5196 43.6666 29.2652 43.6666 29V27H33.0004C32.5678 26.9989 32.1471 26.8587 31.8004 26.6L28.3329 24H21.6666V41H30.6666C30.9318 41 31.1862 41.1054 31.3737 41.2929C31.5613 41.4804 31.6666 41.7348 31.6666 42C31.6666 42.2652 31.5613 42.5196 31.3737 42.7071C31.1862 42.8946 30.9318 43 30.6666 43H21.6666C21.1362 43 20.6275 42.7893 20.2524 42.4142C19.8773 42.0391 19.6666 41.5304 19.6666 41V24C19.6666 23.4696 19.8773 22.9609 20.2524 22.5858C20.6275 22.2107 21.1362 22 21.6666 22H28.3329C28.7654 22.0011 29.1862 22.1413 29.5329 22.4L33.0004 25H43.6666C44.1971 25 44.7058 25.2107 45.0808 25.5858C45.4559 25.9609 45.6666 26.4696 45.6666 27ZM45.6666 37V42C45.6666 42.2652 45.5613 42.5196 45.3737 42.7071C45.1862 42.8946 44.9318 43 44.6666 43H35.6666C35.4014 43 35.1471 42.8946 34.9595 42.7071C34.772 42.5196 34.6666 42.2652 34.6666 42V37C34.6666 36.7348 34.772 36.4804 34.9595 36.2929C35.1471 36.1054 35.4014 36 35.6666 36H36.6666V35.5C36.6666 34.5717 37.0354 33.6815 37.6918 33.0251C38.3481 32.3687 39.2384 32 40.1666 32C41.0949 32 41.9851 32.3687 42.6415 33.0251C43.2979 33.6815 43.6666 34.5717 43.6666 35.5V36H44.6666C44.9318 36 45.1862 36.1054 45.3737 36.2929C45.5613 36.4804 45.6666 36.7348 45.6666 37ZM38.6666 36H41.6666V35.5C41.6666 35.1022 41.5086 34.7206 41.2273 34.4393C40.946 34.158 40.5645 34 40.1666 34C39.7688 34 39.3873 34.158 39.106 34.4393C38.8247 34.7206 38.6666 35.1022 38.6666 35.5V36ZM43.6666 38H36.6666V41H43.6666V38Z" fill="white"/>
</svg>
