<svg width="65" height="64" viewBox="0 0 65 64" fill="none" xmlns="http://www.w3.org/2000/svg">
<path d="M3.66663 32C3.66663 15.9837 16.6504 3 32.6666 3C48.6829 3 61.6666 15.9837 61.6666 32C61.6666 48.0163 48.6829 61 32.6666 61C16.6504 61 3.66663 48.0163 3.66663 32Z" fill="#3C89E8"/>
<path d="M3.66663 32C3.66663 15.9837 16.6504 3 32.6666 3C48.6829 3 61.6666 15.9837 61.6666 32C61.6666 48.0163 48.6829 61 32.6666 61C16.6504 61 3.66663 48.0163 3.66663 32Z" stroke="#112545" stroke-width="6"/>
<path d="M32.6666 19C30.0955 19 27.5821 19.7624 25.4442 21.1909C23.3064 22.6194 21.6401 24.6497 20.6562 27.0251C19.6723 29.4006 19.4148 32.0144 19.9164 34.5362C20.418 37.0579 21.6562 39.3743 23.4742 41.1924C25.2923 43.0105 27.6087 44.2486 30.1305 44.7502C32.6522 45.2518 35.2661 44.9944 37.6415 44.0104C40.017 43.0265 42.0473 41.3603 43.4757 39.2224C44.9042 37.0846 45.6666 34.5712 45.6666 32C45.6627 28.5534 44.2917 25.2491 41.8546 22.812C39.4175 20.3749 36.1132 19.004 32.6666 19ZM43.6666 32C43.6675 33.0145 43.5274 34.0241 43.2504 35H38.4366C38.7433 33.0118 38.7433 30.9882 38.4366 29H43.2504C43.5274 29.9759 43.6675 30.9855 43.6666 32ZM29.4166 37H35.9166C35.2763 39.0982 34.1646 41.0223 32.6666 42.625C31.1692 41.0218 30.0576 39.098 29.4166 37ZM28.9291 35C28.5858 33.0147 28.5858 30.9853 28.9291 29H36.4141C36.7575 30.9853 36.7575 33.0147 36.4141 35H28.9291ZM21.6666 32C21.6658 30.9855 21.8059 29.9759 22.0829 29H26.8966C26.59 30.9882 26.59 33.0118 26.8966 35H22.0829C21.8059 34.0241 21.6658 33.0145 21.6666 32ZM35.9166 27H29.4166C30.057 24.9018 31.1687 22.9777 32.6666 21.375C34.164 22.9782 35.2756 24.902 35.9166 27ZM42.4579 27H38.0054C37.4442 24.9411 36.4984 23.0071 35.2179 21.3C36.765 21.6717 38.2135 22.3735 39.464 23.3573C40.7145 24.3412 41.7375 25.5838 42.4629 27H42.4579ZM30.1154 21.3C28.8349 23.0071 27.8891 24.9411 27.3279 27H22.8704C23.5957 25.5838 24.6187 24.3412 25.8692 23.3573C27.1198 22.3735 28.5682 21.6717 30.1154 21.3ZM22.8704 37H27.3279C27.8891 39.0589 28.8349 40.9929 30.1154 42.7C28.5682 42.3283 27.1198 41.6265 25.8692 40.6427C24.6187 39.6588 23.5957 38.4162 22.8704 37ZM35.2179 42.7C36.4984 40.9929 37.4442 39.0589 38.0054 37H42.4629C41.7375 38.4162 40.7145 39.6588 39.464 40.6427C38.2135 41.6265 36.765 42.3283 35.2179 42.7Z" fill="white"/>
</svg>
