<svg width="65" height="64" viewBox="0 0 65 64" fill="none" xmlns="http://www.w3.org/2000/svg">
<path d="M3.33337 32C3.33337 15.9837 16.3171 3 32.3334 3C48.3496 3 61.3334 15.9837 61.3334 32C61.3334 48.0163 48.3496 61 32.3334 61C16.3171 61 3.33337 48.0163 3.33337 32Z" fill="#E84749"/>
<path d="M3.33337 32C3.33337 15.9837 16.3171 3 32.3334 3C48.3496 3 61.3334 15.9837 61.3334 32C61.3334 48.0163 48.3496 61 32.3334 61C16.3171 61 3.33337 48.0163 3.33337 32Z" stroke="#431418" stroke-width="6"/>
<g clip-path="url(#clip0_875_1773)">
<path d="M30.9896 35.74C32.3298 34.8477 33.3474 33.5479 33.8917 32.0326C34.436 30.5173 34.4783 28.867 34.0122 27.3259C33.5461 25.7847 32.5964 24.4345 31.3036 23.4748C30.0108 22.5151 28.4434 21.997 26.8333 21.997C25.2232 21.997 23.6559 22.5151 22.363 23.4748C21.0702 24.4345 20.1205 25.7847 19.6544 27.3259C19.1883 28.867 19.2306 30.5173 19.7749 32.0326C20.3193 33.5479 21.3368 34.8477 22.6771 35.74C20.2527 36.6336 18.1822 38.287 16.7746 40.4538C16.7006 40.5637 16.6492 40.6873 16.6234 40.8173C16.5976 40.9473 16.5979 41.0811 16.6242 41.2109C16.6506 41.3408 16.7025 41.4642 16.777 41.5738C16.8514 41.6834 16.9469 41.7772 17.0579 41.8496C17.1689 41.922 17.2932 41.9716 17.4236 41.9955C17.5539 42.0195 17.6877 42.0173 17.8172 41.989C17.9467 41.9608 18.0693 41.9071 18.1778 41.8311C18.2864 41.7551 18.3788 41.6583 18.4496 41.5463C19.3576 40.1497 20.6 39.0022 22.0641 38.2077C23.5282 37.4133 25.1676 36.9972 26.8333 36.9972C28.4991 36.9972 30.1384 37.4133 31.6025 38.2077C33.0666 39.0022 34.3091 40.1497 35.2171 41.5463C35.3637 41.7642 35.5903 41.9158 35.8478 41.968C36.1053 42.0203 36.373 41.9691 36.5931 41.8256C36.8131 41.6821 36.9679 41.4577 37.0238 41.201C37.0798 40.9443 37.0324 40.6759 36.8921 40.4538C35.4844 38.287 33.4139 36.6336 30.9896 35.74ZM21.3333 29.5C21.3333 28.4122 21.6559 27.3488 22.2602 26.4444C22.8646 25.5399 23.7236 24.835 24.7286 24.4187C25.7335 24.0024 26.8394 23.8935 27.9063 24.1057C28.9732 24.3179 29.9532 24.8417 30.7224 25.6109C31.4916 26.3801 32.0154 27.3601 32.2276 28.427C32.4399 29.4939 32.3309 30.5998 31.9147 31.6048C31.4984 32.6098 30.7934 33.4687 29.889 34.0731C28.9845 34.6774 27.9211 35 26.8333 35C25.3751 34.9984 23.9771 34.4184 22.9461 33.3873C21.915 32.3562 21.335 30.9582 21.3333 29.5ZM47.6008 41.8375C47.3787 41.9823 47.1081 42.033 46.8486 41.9784C46.5891 41.9238 46.362 41.7684 46.2171 41.5463C45.3102 40.1489 44.0679 39.0008 42.6035 38.2067C41.1391 37.4126 39.4992 36.9978 37.8333 37C37.5681 37 37.3137 36.8946 37.1262 36.7071C36.9387 36.5196 36.8333 36.2652 36.8333 36C36.8333 35.7348 36.9387 35.4804 37.1262 35.2929C37.3137 35.1054 37.5681 35 37.8333 35C38.6433 34.9992 39.4431 34.8196 40.1756 34.4739C40.908 34.1282 41.5551 33.625 42.0706 33.0002C42.5861 32.3755 42.9572 31.6445 43.1574 30.8597C43.3576 30.0749 43.3821 29.2555 43.2289 28.4602C43.0758 27.6648 42.7489 26.9131 42.2716 26.2588C41.7943 25.6044 41.1783 25.0635 40.4677 24.6748C39.7571 24.2861 38.9694 24.0591 38.161 24.0101C37.3525 23.9611 36.5432 24.0912 35.7908 24.3913C35.6681 24.4443 35.5361 24.4722 35.4025 24.4733C35.2688 24.4744 35.1363 24.4488 35.0128 24.3978C34.8892 24.3469 34.7772 24.2717 34.6832 24.1767C34.5892 24.0817 34.5152 23.9688 34.4655 23.8447C34.4159 23.7207 34.3916 23.5879 34.3942 23.4543C34.3967 23.3207 34.426 23.1889 34.4804 23.0668C34.5347 22.9447 34.613 22.8348 34.7105 22.7434C34.808 22.6521 34.9229 22.5812 35.0483 22.535C36.7701 21.8483 38.6853 21.8236 40.4242 22.4656C42.1632 23.1077 43.6028 24.371 44.4653 26.0118C45.3278 27.6526 45.5521 29.5547 45.0949 31.3512C44.6378 33.1476 43.5315 34.7111 41.9896 35.74C44.4139 36.6336 46.4844 38.287 47.8921 40.4538C48.0369 40.6759 48.0876 40.9464 48.033 41.2059C47.9784 41.4654 47.8229 41.6926 47.6008 41.8375Z" fill="white"/>
</g>
<defs>
<clipPath id="clip0_875_1773">
<rect width="32" height="32" fill="white" transform="translate(16.3334 16)"/>
</clipPath>
</defs>
</svg>
