<svg width="64" height="64" viewBox="0 0 64 64" fill="none" xmlns="http://www.w3.org/2000/svg">
<path d="M21 32C20.9994 32.6716 21.0606 33.341 21.1824 34H19.1548C19.0515 33.3366 19.0001 32.6686 19 32.0017L21 32ZM21 32C20.9994 31.3284 21.0606 30.659 21.1824 30H19.1548C19.0519 30.6608 19.0001 31.3289 19 31.9983L21 32ZM44.1465 32.001L43 32.0023C43.0004 32.6731 42.9392 33.3418 42.8176 34H44.8452L44.1465 32.001ZM44.1465 32.001L45 32H43L44.1465 32.001ZM40.9076 36.5448C41.1613 36.0474 41.3725 35.5306 41.5394 35H40.8007C40.7804 35.1526 40.7584 35.305 40.7349 35.4573L38.9418 35.1807L40.9076 36.5448ZM40.9076 36.5448L39.1261 35.6324C38.9446 35.9867 38.7376 36.3261 38.507 36.648L40.9076 36.5448ZM21.4163 26H20.4674C21.3195 24.3621 22.5112 22.9239 23.9632 21.7819C24.2263 21.575 24.4979 21.3778 24.7776 21.1909C25.3434 20.8128 25.9355 20.4814 26.548 20.1985C26.1265 20.8141 25.7404 21.4522 25.3914 22.1095C25.2323 22.4091 25.0809 22.7128 24.9373 23.0201C24.799 23.3162 24.668 23.6157 24.5443 23.9184C24.515 23.9454 24.4858 23.9726 24.4568 24H22.2038V26H21.4163ZM28.6505 20.7012L27.4692 19.8151C27.9635 19.6313 28.4686 19.4777 28.9816 19.3553C29.0841 19.3308 29.1869 19.3076 29.29 19.2856L29.5406 19.6196C29.4087 19.7672 29.2795 19.917 29.153 20.0689C28.9805 20.2759 28.813 20.4868 28.6505 20.7012ZM22.7612 28.1732C22.8624 27.9289 22.9729 27.6894 23.0924 27.4552L24.8739 28.3676C25.0588 28.0065 25.2703 27.661 25.5062 27.3336L25.499 27.3747L25.0582 28.8193L23.2651 28.5427C23.2416 28.695 23.2197 28.8474 23.1993 29H22.4606C22.5484 28.7209 22.6486 28.445 22.7612 28.1732ZM28.2625 26H26.9673C27.001 25.9012 27.0355 25.8027 27.0709 25.7046C27.5887 25.2991 28.1528 24.9597 28.75 24.693V26H28.2625ZM26.6613 30H28.119C27.967 31.329 27.967 32.671 28.119 34H26.6613H26.23V32V30H26.6613ZM28.2625 38H28.75V39.307C28.1528 39.0403 27.5887 38.7009 27.0709 38.2954C27.0355 38.1973 27.001 38.0988 26.9673 38H28.2625ZM30.0129 40.3516L30.085 40.0516C30.1102 40.0948 30.1356 40.1379 30.1612 40.1808C30.1124 40.2382 30.0629 40.2951 30.0129 40.3516ZM30.9086 41.6049L31.3055 41.9759C31.0456 41.9578 30.786 41.9295 30.5273 41.891C30.3675 41.8672 30.2081 41.8395 30.0491 41.8078C29.9262 41.7834 29.8039 41.7567 29.6823 41.7277L29.9313 40.6915L30.9086 41.6049ZM22.4606 35H23.1993C23.2197 35.1526 23.2416 35.305 23.2651 35.4573L25.0573 35.1809L25.4996 36.6286L25.5062 36.6664C25.2703 36.339 25.0588 35.9935 24.8739 35.6324L23.0925 36.5448C22.8397 36.0494 22.6282 35.5328 22.4606 35ZM21.4163 38H22.2038V40H24H24.4568C24.4858 40.0274 24.515 40.0546 24.5443 40.0816C24.668 40.3843 24.799 40.6838 24.9373 40.9799C25.3958 41.9615 25.9343 42.9053 26.548 43.8015C25.6292 43.377 24.7614 42.8459 23.9632 42.2181C23.5594 41.9005 23.1734 41.5582 22.8076 41.1924C21.8641 40.2488 21.0767 39.171 20.4674 38H21.4163ZM27.4692 44.1849L28.6508 43.2985C28.8132 43.513 28.9806 43.7238 29.1531 43.9308C29.2787 44.0817 29.4071 44.2306 29.538 44.3774C29.5389 44.3784 29.5397 44.3794 29.5406 44.3803L29.5362 44.3862L29.29 44.7144C29.1869 44.6924 29.084 44.6692 28.9816 44.6447C28.467 44.5219 27.9621 44.3682 27.4692 44.1849ZM29.5557 27.7889C29.6012 27.6217 29.6499 27.4555 29.7016 27.2904L31.6194 27.8757C31.7098 27.5792 31.8122 27.2871 31.9261 27H32.0735C32.1877 27.2874 32.2902 27.5798 32.3809 27.8766L34.2985 27.2907C34.3502 27.4557 34.3988 27.6218 34.4443 27.7889L34.6825 28.6626L34.7345 29H29.2655L29.3175 28.6626L29.5557 27.7889ZM35.7475 26H35.25V24.693C35.8472 24.9597 36.4113 25.2991 36.9291 25.7046C36.9645 25.8027 36.9991 25.9012 37.0327 26H35.7475ZM33.9871 23.6484L33.915 23.9484C33.8898 23.9052 33.8644 23.8621 33.8388 23.8192C33.8876 23.7618 33.9371 23.7048 33.9871 23.6484ZM29.3175 35.3374L29.2655 35H34.7345L34.6825 35.3374L34.4443 36.2111C34.3988 36.3783 34.3501 36.5445 34.2984 36.7096L32.3807 36.1243C32.2902 36.4208 32.1878 36.7129 32.0739 37H31.9265C31.8124 36.7126 31.7098 36.4202 31.6191 36.1234L29.7015 36.7093C29.6498 36.5443 29.6012 36.3782 29.5557 36.2111L29.3175 35.3374ZM33.4727 41.891C33.2147 41.9294 32.9552 41.9577 32.695 41.9758L33.0918 41.6052L34.069 40.6925L34.3177 41.7277C34.0382 41.7943 33.7563 41.8487 33.4727 41.891ZM33.9152 40.0524L33.9871 40.3514C33.9372 40.2951 33.8879 40.2383 33.8392 40.181C33.8648 40.1383 33.8901 40.0954 33.9152 40.0524ZM35.0184 44.6447C34.9159 44.6692 34.813 44.6924 34.71 44.7144L36.5308 44.1849C36.035 44.3693 35.5299 44.5226 35.0184 44.6447ZM40.0368 42.2181C39.2431 42.8424 38.3761 43.3746 37.452 43.8015C38.0657 42.9053 38.6042 41.9615 39.0627 40.9799C39.201 40.6838 39.332 40.3843 39.4557 40.0816C39.485 40.0546 39.5142 40.0274 39.5432 40H41.7962V38.5456V38H42.5838H43.5326C43.3146 38.419 43.0732 38.8271 42.8091 39.2224C42.0444 40.3669 41.1072 41.3762 40.0368 42.2181ZM32 61C48.0163 61 61 48.0163 61 32C61 15.9837 48.0163 3 32 3C15.9837 3 3 15.9837 3 32C3 48.0163 15.9837 61 32 61Z" fill="#00B1FF" stroke="#EEF9FF" stroke-width="6"/>
</svg>
