<svg width="65" height="64" viewBox="0 0 65 64" fill="none" xmlns="http://www.w3.org/2000/svg">
<mask id="path-1-outside-1_468_11372" maskUnits="userSpaceOnUse" x="0.333374" y="0" width="64" height="64" fill="black">
<rect fill="white" x="0.333374" width="64" height="64"/>
<path fill-rule="evenodd" clip-rule="evenodd" d="M58.3334 32C58.3334 46.3594 46.6928 58 32.3334 58C17.974 58 6.33337 46.3594 6.33337 32C6.33337 17.6406 17.974 6 32.3334 6C46.6928 6 58.3334 17.6406 58.3334 32ZM34.6208 32.0356C34.0765 33.5509 33.0589 34.8508 31.7187 35.743C34.1431 36.6366 36.2136 38.2901 37.6212 40.4568C37.7616 40.6789 37.8089 40.9473 37.7529 41.204C37.697 41.4607 37.5422 41.6851 37.3222 41.8286C37.1021 41.9722 36.8344 42.0233 36.5769 41.9711C36.3194 41.9188 36.0929 41.7673 35.9462 41.5493C35.0382 40.1528 33.7957 39.0052 32.3316 38.2108C30.8675 37.4163 29.2282 37.0002 27.5624 37.0002C25.8967 37.0002 24.2573 37.4163 22.7932 38.2108C21.3291 39.0052 20.0867 40.1528 19.1787 41.5493C19.1079 41.6613 19.0155 41.7582 18.907 41.8342C18.7984 41.9102 18.6758 41.9639 18.5463 41.9921C18.4168 42.0203 18.283 42.0225 18.1527 41.9986C18.0224 41.9746 17.8981 41.925 17.7871 41.8526C17.6761 41.7802 17.5806 41.6865 17.5061 41.5768C17.4317 41.4672 17.3797 41.3439 17.3534 41.214C17.327 41.0841 17.3267 40.9503 17.3525 40.8203C17.3783 40.6903 17.4297 40.5667 17.5037 40.4568C18.9113 38.2901 20.9818 36.6366 23.4062 35.743C22.0659 34.8508 21.0484 33.5509 20.5041 32.0356C19.9597 30.5203 19.9175 28.8701 20.3836 27.3289C20.8496 25.7878 21.7993 24.4375 23.0922 23.4778C24.385 22.5182 25.9523 22 27.5624 22C29.1725 22 30.7399 22.5182 32.0327 23.4778C33.3256 24.4375 34.2752 25.7878 34.7413 27.3289C35.2074 28.8701 35.1652 30.5203 34.6208 32.0356ZM22.9894 26.4474C22.385 27.3519 22.0624 28.4152 22.0624 29.503C22.0641 30.9612 22.6441 32.3592 23.6752 33.3903C24.7063 34.4214 26.1043 35.0014 27.5624 35.003C28.6502 35.003 29.7136 34.6805 30.6181 34.0761C31.5225 33.4718 32.2275 32.6128 32.6438 31.6078C33.0601 30.6028 33.169 29.4969 32.9568 28.43C32.7445 27.3632 32.2207 26.3831 31.4515 25.614C30.6823 24.8448 29.7023 24.3209 28.6354 24.1087C27.5685 23.8965 26.4627 24.0054 25.4577 24.4217C24.4527 24.838 23.5937 25.5429 22.9894 26.4474ZM47.5778 41.9815C47.8372 42.0361 48.1078 41.9854 48.3299 41.8405C48.552 41.6956 48.7075 41.4685 48.7621 41.209C48.8167 40.9495 48.766 40.6789 48.6212 40.4568C47.2136 38.2901 45.1431 36.6366 42.7187 35.743C44.2606 34.7141 45.3669 33.1506 45.8241 31.3542C46.2812 29.5577 46.0569 27.6556 45.1944 26.0148C44.3319 24.374 42.8923 23.1107 41.1534 22.4687C39.4144 21.8266 37.4993 21.8514 35.7774 22.538C35.652 22.5842 35.5372 22.6551 35.4396 22.7464C35.3421 22.8378 35.2638 22.9478 35.2095 23.0699C35.1552 23.192 35.1259 23.3237 35.1233 23.4573C35.1208 23.5909 35.145 23.7237 35.1947 23.8478C35.2443 23.9719 35.3183 24.0847 35.4123 24.1797C35.5063 24.2747 35.6184 24.3499 35.7419 24.4009C35.8655 24.4518 35.998 24.4775 36.1316 24.4764C36.2652 24.4752 36.3973 24.4473 36.5199 24.3943C37.2723 24.0943 38.0816 23.9641 38.8901 24.0131C39.6986 24.0621 40.4862 24.2891 41.1968 24.6778C41.9074 25.0666 42.5234 25.6074 43.0007 26.2618C43.478 26.9162 43.8049 27.6679 43.9581 28.4632C44.1112 29.2586 44.0868 30.0779 43.8865 30.8628C43.6863 31.6476 43.3152 32.3785 42.7997 33.0033C42.2843 33.628 41.6372 34.1312 40.9047 34.4769C40.1722 34.8226 39.3724 35.0023 38.5624 35.003C38.2972 35.003 38.0429 35.1084 37.8553 35.2959C37.6678 35.4835 37.5624 35.7378 37.5624 36.003C37.5624 36.2683 37.6678 36.5226 37.8553 36.7102C38.0429 36.8977 38.2972 37.003 38.5624 37.003C40.2283 37.0008 41.8682 37.4157 43.3326 38.2098C44.797 39.0039 46.0393 40.1519 46.9462 41.5493C47.0911 41.7714 47.3183 41.9268 47.5778 41.9815Z"/>
</mask>
<path fill-rule="evenodd" clip-rule="evenodd" d="M58.3334 32C58.3334 46.3594 46.6928 58 32.3334 58C17.974 58 6.33337 46.3594 6.33337 32C6.33337 17.6406 17.974 6 32.3334 6C46.6928 6 58.3334 17.6406 58.3334 32ZM34.6208 32.0356C34.0765 33.5509 33.0589 34.8508 31.7187 35.743C34.1431 36.6366 36.2136 38.2901 37.6212 40.4568C37.7616 40.6789 37.8089 40.9473 37.7529 41.204C37.697 41.4607 37.5422 41.6851 37.3222 41.8286C37.1021 41.9722 36.8344 42.0233 36.5769 41.9711C36.3194 41.9188 36.0929 41.7673 35.9462 41.5493C35.0382 40.1528 33.7957 39.0052 32.3316 38.2108C30.8675 37.4163 29.2282 37.0002 27.5624 37.0002C25.8967 37.0002 24.2573 37.4163 22.7932 38.2108C21.3291 39.0052 20.0867 40.1528 19.1787 41.5493C19.1079 41.6613 19.0155 41.7582 18.907 41.8342C18.7984 41.9102 18.6758 41.9639 18.5463 41.9921C18.4168 42.0203 18.283 42.0225 18.1527 41.9986C18.0224 41.9746 17.8981 41.925 17.7871 41.8526C17.6761 41.7802 17.5806 41.6865 17.5061 41.5768C17.4317 41.4672 17.3797 41.3439 17.3534 41.214C17.327 41.0841 17.3267 40.9503 17.3525 40.8203C17.3783 40.6903 17.4297 40.5667 17.5037 40.4568C18.9113 38.2901 20.9818 36.6366 23.4062 35.743C22.0659 34.8508 21.0484 33.5509 20.5041 32.0356C19.9597 30.5203 19.9175 28.8701 20.3836 27.3289C20.8496 25.7878 21.7993 24.4375 23.0922 23.4778C24.385 22.5182 25.9523 22 27.5624 22C29.1725 22 30.7399 22.5182 32.0327 23.4778C33.3256 24.4375 34.2752 25.7878 34.7413 27.3289C35.2074 28.8701 35.1652 30.5203 34.6208 32.0356ZM22.9894 26.4474C22.385 27.3519 22.0624 28.4152 22.0624 29.503C22.0641 30.9612 22.6441 32.3592 23.6752 33.3903C24.7063 34.4214 26.1043 35.0014 27.5624 35.003C28.6502 35.003 29.7136 34.6805 30.6181 34.0761C31.5225 33.4718 32.2275 32.6128 32.6438 31.6078C33.0601 30.6028 33.169 29.4969 32.9568 28.43C32.7445 27.3632 32.2207 26.3831 31.4515 25.614C30.6823 24.8448 29.7023 24.3209 28.6354 24.1087C27.5685 23.8965 26.4627 24.0054 25.4577 24.4217C24.4527 24.838 23.5937 25.5429 22.9894 26.4474ZM47.5778 41.9815C47.8372 42.0361 48.1078 41.9854 48.3299 41.8405C48.552 41.6956 48.7075 41.4685 48.7621 41.209C48.8167 40.9495 48.766 40.6789 48.6212 40.4568C47.2136 38.2901 45.1431 36.6366 42.7187 35.743C44.2606 34.7141 45.3669 33.1506 45.8241 31.3542C46.2812 29.5577 46.0569 27.6556 45.1944 26.0148C44.3319 24.374 42.8923 23.1107 41.1534 22.4687C39.4144 21.8266 37.4993 21.8514 35.7774 22.538C35.652 22.5842 35.5372 22.6551 35.4396 22.7464C35.3421 22.8378 35.2638 22.9478 35.2095 23.0699C35.1552 23.192 35.1259 23.3237 35.1233 23.4573C35.1208 23.5909 35.145 23.7237 35.1947 23.8478C35.2443 23.9719 35.3183 24.0847 35.4123 24.1797C35.5063 24.2747 35.6184 24.3499 35.7419 24.4009C35.8655 24.4518 35.998 24.4775 36.1316 24.4764C36.2652 24.4752 36.3973 24.4473 36.5199 24.3943C37.2723 24.0943 38.0816 23.9641 38.8901 24.0131C39.6986 24.0621 40.4862 24.2891 41.1968 24.6778C41.9074 25.0666 42.5234 25.6074 43.0007 26.2618C43.478 26.9162 43.8049 27.6679 43.9581 28.4632C44.1112 29.2586 44.0868 30.0779 43.8865 30.8628C43.6863 31.6476 43.3152 32.3785 42.7997 33.0033C42.2843 33.628 41.6372 34.1312 40.9047 34.4769C40.1722 34.8226 39.3724 35.0023 38.5624 35.003C38.2972 35.003 38.0429 35.1084 37.8553 35.2959C37.6678 35.4835 37.5624 35.7378 37.5624 36.003C37.5624 36.2683 37.6678 36.5226 37.8553 36.7102C38.0429 36.8977 38.2972 37.003 38.5624 37.003C40.2283 37.0008 41.8682 37.4157 43.3326 38.2098C44.797 39.0039 46.0393 40.1519 46.9462 41.5493C47.0911 41.7714 47.3183 41.9268 47.5778 41.9815Z" fill="#EF4444"/>
<path d="M31.7187 35.743L28.3937 30.7486L18.5673 37.2904L29.6437 41.3728L31.7187 35.743ZM34.6208 32.0356L28.9741 30.0071L28.9741 30.0071L34.6208 32.0356ZM37.6212 40.4568L42.6931 37.2512L42.673 37.2195L42.6526 37.1881L37.6212 40.4568ZM35.9462 41.5493L30.9159 44.8199L30.9417 44.8595L30.9681 44.8987L35.9462 41.5493ZM32.3316 38.2108L29.4701 43.4844L29.4701 43.4844L32.3316 38.2108ZM22.7932 38.2108L25.6548 43.4844L25.6548 43.4844L22.7932 38.2108ZM19.1787 41.5493L14.1484 38.2787L14.1274 38.3111L14.1068 38.3437L19.1787 41.5493ZM18.907 41.8342L22.3485 46.749L22.3485 46.749L18.907 41.8342ZM18.5463 41.9921L19.824 47.8545L19.824 47.8545L18.5463 41.9921ZM18.1527 41.9986L19.2368 36.0973L19.2368 36.0973L18.1527 41.9986ZM17.3534 41.214L23.2334 40.0202L23.2334 40.0202L17.3534 41.214ZM17.5037 40.4568L22.4818 43.8062L22.5088 43.7661L22.5351 43.7255L17.5037 40.4568ZM23.4062 35.743L25.4811 41.3728L36.5576 37.2904L26.7312 30.7486L23.4062 35.743ZM20.5041 32.0356L26.1508 30.0071L26.1508 30.0071L20.5041 32.0356ZM23.0922 23.4778L26.6684 28.2956L26.6684 28.2956L23.0922 23.4778ZM32.0327 23.4778L28.4565 28.2956L32.0327 23.4778ZM22.0624 29.503H16.0624L16.0624 29.5099L22.0624 29.503ZM23.6752 33.3903L19.4325 37.6329L19.4325 37.633L23.6752 33.3903ZM27.5624 35.003L27.5556 41.003H27.5624V35.003ZM30.6181 34.0761L33.9515 39.0649L33.9515 39.0649L30.6181 34.0761ZM32.6438 31.6078L27.1005 29.3117L27.1005 29.3117L32.6438 31.6078ZM31.4515 25.614L27.2089 29.8566L27.2089 29.8566L31.4515 25.614ZM25.4577 24.4217L27.7538 29.965L27.7538 29.965L25.4577 24.4217ZM48.3299 41.8405L51.6073 46.8664L51.6083 46.8657L48.3299 41.8405ZM48.6212 40.4568L43.5898 43.7255L43.5953 43.7341L48.6212 40.4568ZM42.7187 35.743L39.3883 30.7522L29.582 37.2959L40.6437 41.3728L42.7187 35.743ZM45.8241 31.3542L51.6387 32.834V32.834L45.8241 31.3542ZM45.1944 26.0148L50.5054 23.2231L50.5054 23.2231L45.1944 26.0148ZM41.1534 22.4687L39.0753 28.0973L39.0753 28.0973L41.1534 22.4687ZM35.7774 22.538L37.8516 28.1681L37.9262 28.1406L38.0001 28.1112L35.7774 22.538ZM35.1233 23.4573L41.1222 23.5717V23.5717L35.1233 23.4573ZM35.4123 24.1797L39.6774 19.9597L39.6773 19.9596L35.4123 24.1797ZM35.7419 24.4009L38.0294 18.854L38.0293 18.854L35.7419 24.4009ZM36.1316 24.4764L36.0809 18.4766H36.0808L36.1316 24.4764ZM36.5199 24.3943L34.2974 18.8211L34.2178 18.8529L34.1391 18.8869L36.5199 24.3943ZM38.8901 24.0131L38.527 30.0021H38.527L38.8901 24.0131ZM41.1968 24.6778L44.0764 19.414L44.0763 19.414L41.1968 24.6778ZM43.0007 26.2618L47.8481 22.7259L47.8481 22.7259L43.0007 26.2618ZM43.9581 28.4632L49.8499 27.3289L49.8499 27.3289L43.9581 28.4632ZM43.8865 30.8628L38.0728 29.3794L38.0728 29.3795L43.8865 30.8628ZM42.7997 33.0033L47.4278 36.8217L47.4279 36.8217L42.7997 33.0033ZM40.9047 34.4769L43.4655 39.903L43.4655 39.903L40.9047 34.4769ZM38.5624 35.003V41.003L38.5681 41.003L38.5624 35.003ZM37.8553 35.2959L42.098 39.5386L42.098 39.5386L37.8553 35.2959ZM37.8553 36.7102L33.6127 40.9528L33.6127 40.9528L37.8553 36.7102ZM38.5624 37.003V43.003L38.5705 43.003L38.5624 37.003ZM43.3326 38.2098L46.1928 32.9353L43.3326 38.2098ZM46.9462 41.5493L41.9133 44.8157L41.9171 44.8217L41.921 44.8277L46.9462 41.5493ZM32.3334 64C50.0065 64 64.3334 49.6731 64.3334 32H52.3334C52.3334 43.0457 43.3791 52 32.3334 52V64ZM0.333374 32C0.333374 49.6731 14.6603 64 32.3334 64V52C21.2877 52 12.3334 43.0457 12.3334 32H0.333374ZM32.3334 0C14.6603 0 0.333374 14.3269 0.333374 32H12.3334C12.3334 20.9543 21.2877 12 32.3334 12V0ZM64.3334 32C64.3334 14.3269 50.0065 0 32.3334 0V12C43.3791 12 52.3334 20.9543 52.3334 32H64.3334ZM35.0437 40.7375C37.4561 39.1314 39.2877 36.7916 40.2675 34.0641L28.9741 30.0071C28.8652 30.3102 28.6617 30.5702 28.3937 30.7486L35.0437 40.7375ZM42.6526 37.1881C40.5399 33.9361 37.4324 31.4544 33.7936 30.1132L29.6437 41.3728C30.8538 41.8188 31.8872 42.6441 32.5898 43.7255L42.6526 37.1881ZM43.6153 42.4818C44.007 40.6848 43.6757 38.8059 42.6931 37.2512L32.5493 43.6624C31.8474 42.5519 31.6108 41.2098 31.8906 39.9263L43.6153 42.4818ZM40.6 46.8542C42.1405 45.8494 43.2236 44.2788 43.6153 42.4818L31.8906 39.9263C32.1703 38.6427 32.944 37.5208 34.0443 36.8031L40.6 46.8542ZM35.3832 47.8511C37.1856 48.217 39.0596 47.8589 40.6 46.8542L34.0443 36.8031C35.1447 36.0855 36.4832 35.8297 37.7706 36.091L35.3832 47.8511ZM30.9681 44.8987C31.9947 46.4246 33.5807 47.4852 35.3832 47.8511L37.7706 36.091C39.0581 36.3524 40.191 37.11 40.9243 38.1999L30.9681 44.8987ZM29.4701 43.4844C30.0558 43.8022 30.5527 44.2612 30.9159 44.8199L40.9764 38.2787C39.5237 36.0443 37.5357 34.2082 35.1932 32.9371L29.4701 43.4844ZM27.5624 43.0002C28.2287 43.0002 28.8845 43.1667 29.4701 43.4844L35.1932 32.9371C32.8506 31.666 30.2276 31.0002 27.5624 31.0002V43.0002ZM25.6548 43.4844C26.2404 43.1667 26.8961 43.0002 27.5624 43.0002V31.0002C24.8973 31.0002 22.2743 31.666 19.9317 32.9371L25.6548 43.4844ZM24.2089 44.8199C24.5721 44.2612 25.0691 43.8022 25.6548 43.4844L19.9317 32.9371C17.5891 34.2082 15.6012 36.0443 14.1484 38.2787L24.2089 44.8199ZM22.3485 46.749C23.1084 46.2169 23.755 45.5391 24.2506 44.7549L14.1068 38.3437C14.4608 37.7836 14.9226 37.2994 15.4654 36.9193L22.3485 46.749ZM19.824 47.8545C20.7305 47.6569 21.5886 47.2811 22.3485 46.749L15.4654 36.9193C16.0082 36.5393 16.6211 36.2708 17.2686 36.1297L19.824 47.8545ZM17.0686 47.8998C17.9811 48.0674 18.9177 48.052 19.824 47.8545L17.2686 36.1297C17.916 35.9886 18.585 35.9776 19.2368 36.0973L17.0686 47.8998ZM14.5093 46.8781C15.2862 47.3849 16.1562 47.7322 17.0686 47.8998L19.2368 36.0973C19.8885 36.217 20.5099 36.4651 21.0649 36.8271L14.5093 46.8781ZM12.5425 44.9477C13.0637 45.7151 13.7322 46.3713 14.5093 46.8781L21.0649 36.8271C21.6199 37.1891 22.0974 37.6578 22.4697 38.206L12.5425 44.9477ZM11.4733 42.4077C11.6579 43.3169 12.0213 44.1803 12.5425 44.9477L22.4697 38.206C22.842 38.7541 23.1016 39.3708 23.2334 40.0202L11.4733 42.4077ZM11.4674 39.6519C11.2867 40.5619 11.2887 41.4986 11.4733 42.4078L23.2334 40.0202C23.3653 40.6696 23.3667 41.3387 23.2377 41.9887L11.4674 39.6519ZM12.5256 37.1074C12.0077 37.8771 11.648 38.742 11.4674 39.6519L23.2377 41.9887C23.1086 42.6386 22.8517 43.2564 22.4818 43.8062L12.5256 37.1074ZM21.3312 30.1132C17.6925 31.4544 14.5849 33.9361 12.4723 37.1881L22.5351 43.7255C23.2377 42.6441 24.2711 41.8188 25.4811 41.3728L21.3312 30.1132ZM14.8574 34.0641C15.8372 36.7916 17.6687 39.1314 20.0812 40.7375L26.7312 30.7486C26.4631 30.5702 26.2596 30.3102 26.1508 30.0071L14.8574 34.0641ZM14.6404 25.5921C13.8015 28.3661 13.8775 31.3366 14.8574 34.0641L26.1508 30.0071C26.0419 29.7041 26.0334 29.374 26.1267 29.0658L14.6404 25.5921ZM19.5159 18.6601C17.1888 20.3875 15.4794 22.818 14.6404 25.5921L26.1267 29.0658C26.2199 28.7575 26.4098 28.4875 26.6684 28.2956L19.5159 18.6601ZM27.5624 16C24.6643 16 21.843 16.9327 19.5159 18.6601L26.6684 28.2956C26.927 28.1036 27.2404 28 27.5624 28V16ZM35.609 18.6601C33.2818 16.9327 30.4606 16 27.5624 16V28C27.8845 28 28.1979 28.1036 28.4565 28.2956L35.609 18.6601ZM40.4844 25.5921C39.6455 22.818 37.9361 20.3875 35.609 18.6601L28.4565 28.2956C28.7151 28.4875 28.905 28.7576 28.9982 29.0658L40.4844 25.5921ZM40.2675 34.0641C41.2473 31.3366 41.3234 28.3661 40.4844 25.5921L28.9982 29.0658C29.0914 29.374 29.083 29.7041 28.9741 30.0071L40.2675 34.0641ZM28.0624 29.503C28.0624 29.6019 28.0331 29.6986 27.9782 29.7808L18.0005 23.114C16.7369 25.0051 16.0624 27.2286 16.0624 29.503H28.0624ZM27.9178 29.1477C28.0103 29.2401 28.0623 29.3655 28.0624 29.4962L16.0624 29.5099C16.0659 32.557 17.2779 35.4783 19.4325 37.6329L27.9178 29.1477ZM27.5693 29.003C27.7 29.0032 27.8254 29.0552 27.9178 29.1477L19.4325 37.633C21.5872 39.7876 24.5085 40.9996 27.5556 41.003L27.5693 29.003ZM27.2847 29.0873C27.3669 29.0324 27.4635 29.003 27.5624 29.003V41.003C29.8369 41.003 32.0603 40.3286 33.9515 39.0649L27.2847 29.0873ZM27.1005 29.3117C27.1383 29.2203 27.2024 29.1422 27.2847 29.0873L33.9515 39.0649C35.8427 37.8013 37.3166 36.0053 38.1871 33.9039L27.1005 29.3117ZM27.072 29.6006C27.0528 29.5036 27.0627 29.4031 27.1005 29.3117L38.1871 33.9039C39.0575 31.8026 39.2852 29.4903 38.8415 27.2595L27.072 29.6006ZM27.2089 29.8566C27.139 29.7867 27.0913 29.6976 27.072 29.6006L38.8415 27.2595C38.3977 25.0287 37.3025 22.9796 35.6942 21.3713L27.2089 29.8566ZM27.4649 29.9934C27.3679 29.9741 27.2788 29.9265 27.2089 29.8566L35.6942 21.3713C34.0859 19.763 32.0368 18.6677 29.806 18.224L27.4649 29.9934ZM27.7538 29.965C27.6624 30.0028 27.5619 30.0127 27.4649 29.9934L29.806 18.224C27.5752 17.7803 25.2629 18.008 23.1616 18.8784L27.7538 29.965ZM27.9782 29.7808C27.9232 29.8631 27.8451 29.9271 27.7538 29.965L23.1616 18.8784C21.0602 19.7488 19.2642 21.2228 18.0005 23.114L27.9782 29.7808ZM45.0526 36.8147C46.1632 36.0905 47.5161 35.837 48.8136 36.1101L46.3419 47.8528C48.1584 48.2351 50.0524 47.8803 51.6073 46.8664L45.0526 36.8147ZM42.8908 39.9732C43.1639 38.6757 43.9411 37.5398 45.0516 36.8154L51.6083 46.8657C53.1629 45.8515 54.2511 44.2613 54.6335 42.4448L42.8908 39.9732ZM43.5953 43.7341C42.8711 42.6235 42.6177 41.2707 42.8908 39.9732L54.6335 42.4448C55.0158 40.6283 54.661 38.7344 53.6471 37.1795L43.5953 43.7341ZM40.6437 41.3728C41.8538 41.8188 42.8872 42.6441 43.5898 43.7255L53.6526 37.1881C51.5399 33.9361 48.4324 31.4544 44.7936 30.1132L40.6437 41.3728ZM40.0094 29.8744C39.918 30.2337 39.6967 30.5464 39.3883 30.7522L46.049 40.7339C48.8245 38.8819 50.8158 36.0676 51.6387 32.834L40.0094 29.8744ZM39.8835 28.8065C40.056 29.1347 40.1008 29.5151 40.0094 29.8744L51.6387 32.834C52.4616 29.6004 52.0579 26.1766 50.5054 23.2231L39.8835 28.8065ZM39.0753 28.0973C39.4231 28.2257 39.711 28.4784 39.8835 28.8065L50.5054 23.2231C48.9529 20.2696 46.3616 17.9957 43.2315 16.84L39.0753 28.0973ZM38.0001 28.1112C38.3444 27.9738 38.7275 27.9689 39.0753 28.0973L43.2315 16.84C40.1013 15.6844 36.6541 15.7289 33.5548 16.9649L38.0001 28.1112ZM39.5407 27.1261C39.0529 27.5828 38.4786 27.9371 37.8516 28.1681L33.7033 16.908C32.8255 17.2313 32.0214 17.7274 31.3386 18.3668L39.5407 27.1261ZM40.6913 25.5091C40.4197 26.1195 40.0285 26.6693 39.5407 27.1261L31.3386 18.3668C30.6557 19.0062 30.108 19.776 29.7277 20.6306L40.6913 25.5091ZM41.1222 23.5717C41.1095 24.2398 40.963 24.8986 40.6913 25.5091L29.7277 20.6306C29.3474 21.4853 29.1422 22.4076 29.1244 23.3429L41.1222 23.5717ZM40.7655 21.6195C41.0137 22.2398 41.135 22.9036 41.1222 23.5717L29.1244 23.3429C29.1066 24.2782 29.2764 25.2076 29.6238 26.0761L40.7655 21.6195ZM39.6773 19.9596C40.1474 20.4347 40.5174 20.9991 40.7655 21.6195L29.6238 26.0761C29.9712 26.9446 30.4892 27.7348 31.1472 28.3998L39.6773 19.9596ZM38.0293 18.854C38.647 19.1087 39.2074 19.4847 39.6774 19.9597L31.1472 28.3998C31.8051 29.0647 32.5897 29.5911 33.4545 29.9477L38.0293 18.854ZM36.0808 18.4766C36.749 18.4709 37.4116 18.5993 38.0294 18.854L33.4545 29.9477C34.3193 30.3044 35.2469 30.4841 36.1824 30.4761L36.0808 18.4766ZM34.1391 18.8869C34.7525 18.6217 35.4127 18.4822 36.0809 18.4766L36.1823 30.4761C37.1177 30.4682 38.0421 30.2729 38.9008 29.9017L34.1391 18.8869ZM39.2532 18.0241C37.5627 17.9216 35.8705 18.1938 34.2974 18.8211L38.7425 29.9675C38.6741 29.9948 38.6005 30.0066 38.527 30.0021L39.2532 18.0241ZM44.0763 19.414C42.5906 18.6012 40.9436 18.1266 39.2532 18.0241L38.527 30.0021C38.4535 29.9977 38.3819 29.977 38.3173 29.9417L44.0763 19.414ZM47.8481 22.7259C46.8501 21.3576 45.5621 20.2267 44.0764 19.414L38.3173 29.9417C38.2527 29.9064 38.1967 29.8572 38.1533 29.7977L47.8481 22.7259ZM49.8499 27.3289C49.5297 25.6659 48.8461 24.0941 47.8481 22.7259L38.1533 29.7977C38.1099 29.7382 38.0802 29.6699 38.0663 29.5976L49.8499 27.3289ZM49.7003 32.3461C50.119 30.7051 50.17 28.9919 49.8499 27.3289L38.0663 29.5975C38.0524 29.5253 38.0546 29.4508 38.0728 29.3794L49.7003 32.3461ZM47.4279 36.8217C48.5056 35.5153 49.2816 33.9871 49.7003 32.3461L38.0728 29.3795C38.091 29.3081 38.1247 29.2416 38.1716 29.1849L47.4279 36.8217ZM43.4655 39.903C44.9971 39.1802 46.3501 38.128 47.4278 36.8217L38.1716 29.1848C38.2184 29.128 38.2773 29.0823 38.3438 29.0509L43.4655 39.903ZM38.5681 41.003C40.2617 41.0014 41.934 40.6258 43.4655 39.903L38.3438 29.0509C38.4104 29.0194 38.4832 29.0031 38.5568 29.003L38.5681 41.003ZM42.098 39.5386C41.1603 40.4763 39.8885 41.003 38.5624 41.003V29.003C36.706 29.003 34.9255 29.7405 33.6127 31.0533L42.098 39.5386ZM43.5624 36.003C43.5624 37.3291 43.0357 38.6009 42.098 39.5386L33.6127 31.0533C32.2999 32.3661 31.5624 34.1465 31.5624 36.003H43.5624ZM42.098 32.4675C43.0357 33.4052 43.5624 34.677 43.5624 36.003H31.5624C31.5624 37.8596 32.2999 39.64 33.6127 40.9528L42.098 32.4675ZM38.5624 31.003C39.8885 31.003 41.1603 31.5298 42.098 32.4675L33.6127 40.9528C34.9255 42.2656 36.7059 43.003 38.5624 43.003V31.003ZM46.1928 32.9353C43.8478 31.6638 41.2219 30.9995 38.5544 31.003L38.5705 43.003C39.2347 43.0022 39.8886 43.1676 40.4724 43.4842L46.1928 32.9353ZM51.9791 38.2829C50.5269 36.0453 48.5377 34.2069 46.1928 32.9353L40.4724 43.4842C41.0563 43.8008 41.5517 44.2586 41.9133 44.8157L51.9791 38.2829ZM48.8136 36.1101C50.111 36.3832 51.2469 37.1605 51.9713 38.2709L41.921 44.8277C42.9353 46.3823 44.5255 47.4705 46.3419 47.8528L48.8136 36.1101Z" fill="#FEF2F2" mask="url(#path-1-outside-1_468_11372)"/>
</svg>
