<svg width="48" height="49" viewBox="0 0 48 49" fill="none" xmlns="http://www.w3.org/2000/svg">
<circle cx="24" cy="24.9138" r="22" fill="#26BA73" stroke="#D5F6E0" stroke-width="4"/>
<g clip-path="url(#clip0_703_10357)">
<mask id="mask0_703_10357" style="mask-type:luminance" maskUnits="userSpaceOnUse" x="12" y="23" width="21" height="11">
<path d="M12.6421 23.5382H32.4907V33.2472H12.6421V23.5382Z" fill="white"/>
</mask>
<g mask="url(#mask0_703_10357)">
<path d="M32.1269 26.2978L31.2726 27.2456C31.0514 27.4906 30.675 27.4906 30.4509 27.2456L29.6097 26.3113C29.5035 26.1934 29.3081 26.2684 29.3081 26.4271V29.579C29.3081 29.8814 29.0627 30.1267 28.7604 30.1267H18.7635C18.4608 30.1267 18.2155 29.8814 18.2155 29.579V28.4826H20.3854C20.7274 28.4826 20.9047 28.0599 20.6714 27.8011L17.0153 23.7456C16.8606 23.5739 16.5979 23.5739 16.4435 23.7456L12.7874 27.8011C12.5541 28.0599 12.7315 28.4826 13.0735 28.4826H15.095V32.2045C15.095 32.7806 15.562 33.2472 16.1377 33.2472H31.3859C31.9619 33.2472 32.4285 32.7806 32.4285 32.2045V26.4136C32.4285 26.255 32.2331 26.1799 32.1269 26.2978Z" fill="#EEFBF3"/>
</g>
<mask id="mask1_703_10357" style="mask-type:luminance" maskUnits="userSpaceOnUse" x="15" y="15" width="20" height="11">
<path d="M15.089 15.9138H34.9376V25.8947H15.089V15.9138Z" fill="white"/>
</mask>
<g mask="url(#mask1_703_10357)">
<path d="M34.5182 20.9737H32.4284V16.9564C32.4284 16.3804 31.9617 15.9138 31.3857 15.9138H16.1375C15.5618 15.9138 15.0948 16.3808 15.0948 16.9564V23.0196C15.0948 23.1754 15.2843 23.2519 15.3926 23.14L16.2904 22.2107C16.5273 21.9657 16.9302 21.9657 17.1698 22.2107L17.9179 22.9846C18.0259 23.0965 18.2153 23.02 18.2153 22.8642V19.5823C18.2153 19.2796 18.4607 19.0343 18.7634 19.0343H28.7602C29.0626 19.0343 29.3079 19.2796 29.3079 19.5823V20.9737H27.2064C26.864 20.9737 26.6866 21.3964 26.9203 21.6552L30.5764 25.7106C30.7311 25.882 30.9935 25.882 31.1482 25.7106L34.8039 21.6552C35.0376 21.3964 34.8602 20.9737 34.5182 20.9737Z" fill="#002740"/>
</g>
<mask id="mask2_703_10357" style="mask-type:luminance" maskUnits="userSpaceOnUse" x="22" y="18" width="4" height="6">
<path d="M22.2365 18.728H25.3569V23.2016H22.2365V18.728Z" fill="white"/>
</mask>
<g mask="url(#mask2_703_10357)">
<mask id="mask3_703_10357" style="mask-type:luminance" maskUnits="userSpaceOnUse" x="22" y="18" width="4" height="6">
<path d="M22.5763 18.728H25.017C25.1073 18.728 25.1937 18.7638 25.2574 18.8275C25.3211 18.8912 25.3569 18.978 25.3569 19.0679V22.8546C25.3569 22.9446 25.3211 23.0313 25.2574 23.095C25.1937 23.1588 25.1073 23.1945 25.017 23.1945H22.5763C22.4864 23.1945 22.3997 23.1588 22.3359 23.095C22.2722 23.0313 22.2365 22.9446 22.2365 22.8546V19.0679C22.2365 18.978 22.2722 18.8912 22.3359 18.8275C22.3997 18.7638 22.4864 18.728 22.5763 18.728Z" fill="white"/>
</mask>
<g mask="url(#mask3_703_10357)">
<path d="M22.2365 18.728H25.3569V23.1896H22.2365V18.728Z" fill="#002740"/>
</g>
</g>
<mask id="mask4_703_10357" style="mask-type:luminance" maskUnits="userSpaceOnUse" x="22" y="26" width="4" height="5">
<path d="M22.2365 26.1611H25.3569V30.6347H22.2365V26.1611Z" fill="white"/>
</mask>
<g mask="url(#mask4_703_10357)">
<mask id="mask5_703_10357" style="mask-type:luminance" maskUnits="userSpaceOnUse" x="22" y="26" width="4" height="5">
<path d="M22.5763 26.1611H25.017C25.1073 26.1611 25.1937 26.1969 25.2574 26.2606C25.3211 26.3243 25.3569 26.4111 25.3569 26.501V30.2878C25.3569 30.3777 25.3211 30.4641 25.2574 30.5281C25.1937 30.5919 25.1073 30.6276 25.017 30.6276H22.5763C22.4864 30.6276 22.3997 30.5919 22.3359 30.5281C22.2722 30.4641 22.2365 30.3777 22.2365 30.2878V26.501C22.2365 26.4111 22.2722 26.3243 22.3359 26.2606C22.3997 26.1969 22.4864 26.1611 22.5763 26.1611Z" fill="white"/>
</mask>
<g mask="url(#mask5_703_10357)">
<path opacity="0.4" d="M22.2365 26.1611H25.3569V30.6227H22.2365V26.1611Z" fill="#EEFBF3"/>
</g>
</g>
</g>
<defs>
<clipPath id="clip0_703_10357">
<rect width="24" height="17.3333" fill="white" transform="translate(12 15.9138)"/>
</clipPath>
</defs>
</svg>
