<svg width="130" height="36" viewBox="0 0 130 36" fill="none" xmlns="http://www.w3.org/2000/svg">
<mask id="mask0_867_162" style="mask-type:luminance" maskUnits="userSpaceOnUse" x="1" y="15" width="42" height="21">
<path d="M1.33325 15.8351H42.5572V36H1.33325V15.8351Z" fill="white"/>
</mask>
<g mask="url(#mask0_867_162)">
<path d="M41.8013 21.5667L40.027 23.5351C39.5675 24.044 38.7858 24.044 38.3204 23.5351L36.5733 21.5947C36.3527 21.3498 35.9468 21.5057 35.9468 21.8351V28.3815C35.9468 29.0095 35.4373 29.519 34.8093 29.519H14.0466C13.4179 29.519 12.9084 29.0095 12.9084 28.3815V26.1043H17.415C18.1253 26.1043 18.4937 25.2263 18.0092 24.6888L10.4157 16.2659C10.0944 15.9093 9.54877 15.9093 9.22818 16.2659L1.63472 24.6888C1.15016 25.2263 1.51854 26.1043 2.22885 26.1043H6.42742V33.8345C6.42742 35.0308 7.39728 36 8.59288 36H40.2623C41.4587 36 42.4278 35.0308 42.4278 33.8345V21.8072C42.4278 21.4778 42.0219 21.3219 41.8013 21.5667Z" fill="#26BA73"/>
</g>
<mask id="mask1_867_162" style="mask-type:luminance" maskUnits="userSpaceOnUse" x="6" y="0" width="42" height="21">
<path d="M6.41565 0H47.6396V20.7296H6.41565V0Z" fill="white"/>
</mask>
<g mask="url(#mask1_867_162)">
<path d="M46.7683 10.5089H42.4278V2.16546C42.4278 0.969128 41.4587 0 40.2623 0H8.59289C7.39729 0 6.42743 0.969863 6.42743 2.16546V14.7582C6.42743 15.0818 6.82082 15.2406 7.04582 15.0082L8.91054 13.0781C9.40246 12.5692 10.2392 12.5692 10.737 13.0781L12.2907 14.6854C12.515 14.9178 12.9084 14.759 12.9084 14.4354V7.61919C12.9084 6.99051 13.4179 6.48095 14.0466 6.48095H34.8093C35.4373 6.48095 35.9468 6.99051 35.9468 7.61919V10.5089H31.5821C30.8711 10.5089 30.5027 11.3869 30.988 11.9244L38.5814 20.3473C38.9028 20.7032 39.4476 20.7032 39.7689 20.3473L47.3617 11.9244C47.847 11.3869 47.4786 10.5089 46.7683 10.5089Z" fill="#002740"/>
</g>
<mask id="mask2_867_162" style="mask-type:luminance" maskUnits="userSpaceOnUse" x="21" y="5" width="7" height="11">
<path d="M21.2599 5.84454H27.7408V15.1358H21.2599V5.84454Z" fill="white"/>
</mask>
<g mask="url(#mask2_867_162)">
<mask id="mask3_867_162" style="mask-type:luminance" maskUnits="userSpaceOnUse" x="21" y="5" width="7" height="11">
<path d="M21.9658 5.84454H27.0349C27.2224 5.84454 27.4019 5.91881 27.5342 6.05116C27.6666 6.18352 27.7408 6.36367 27.7408 6.55043V14.4152C27.7408 14.602 27.6666 14.7821 27.5342 14.9145C27.4019 15.0468 27.2224 15.1211 27.0349 15.1211H21.9658C21.779 15.1211 21.5989 15.0468 21.4665 14.9145C21.3342 14.7821 21.2599 14.602 21.2599 14.4152V6.55043C21.2599 6.36367 21.3342 6.18352 21.4665 6.05116C21.5989 5.91881 21.779 5.84454 21.9658 5.84454Z" fill="white"/>
</mask>
<g mask="url(#mask3_867_162)">
<path d="M21.2599 5.84454H27.7408V15.1108H21.2599V5.84454Z" fill="#002740"/>
</g>
</g>
<mask id="mask4_867_162" style="mask-type:luminance" maskUnits="userSpaceOnUse" x="21" y="21" width="7" height="10">
<path d="M21.2599 21.2825H27.7408V30.5738H21.2599V21.2825Z" fill="white"/>
</mask>
<g mask="url(#mask4_867_162)">
<mask id="mask5_867_162" style="mask-type:luminance" maskUnits="userSpaceOnUse" x="21" y="21" width="7" height="10">
<path d="M21.9658 21.2825H27.0349C27.2224 21.2825 27.4019 21.3568 27.5342 21.4892C27.6666 21.6215 27.7408 21.8017 27.7408 21.9884V29.8532C27.7408 30.04 27.6666 30.2194 27.5342 30.3525C27.4019 30.4848 27.2224 30.5591 27.0349 30.5591H21.9658C21.779 30.5591 21.5989 30.4848 21.4665 30.3525C21.3342 30.2194 21.2599 30.04 21.2599 29.8532V21.9884C21.2599 21.8017 21.3342 21.6215 21.4665 21.4892C21.5989 21.3568 21.779 21.2825 21.9658 21.2825Z" fill="white"/>
</mask>
<g mask="url(#mask5_867_162)">
<path opacity="0.4" d="M21.2599 21.2825H27.7408V30.5488H21.2599V21.2825Z" fill="#26BA73"/>
</g>
</g>
<path d="M60 13.426V0.825975H68.1V2.98597H62.376V5.99198H67.596V8.15198H62.376V11.266H68.208V13.426H60Z" fill="#002740"/>
<path d="M74.1608 13.678C73.1888 13.678 72.3308 13.504 71.5868 13.156C70.8428 12.808 70.2608 12.31 69.8408 11.662C69.4208 11.014 69.2108 10.234 69.2108 9.32197V8.81798H71.5508V9.32197C71.5508 10.078 71.7848 10.648 72.2528 11.032C72.7208 11.404 73.3568 11.59 74.1608 11.59C74.9768 11.59 75.5828 11.428 75.9788 11.104C76.3868 10.78 76.5908 10.366 76.5908 9.86197C76.5908 9.51398 76.4888 9.23197 76.2848 9.01597C76.0928 8.79997 75.8048 8.62598 75.4208 8.49398C75.0488 8.34998 74.5928 8.21798 74.0528 8.09798L73.6388 8.00798C72.7748 7.81598 72.0308 7.57598 71.4068 7.28798C70.7948 6.98798 70.3208 6.59798 69.9848 6.11798C69.6608 5.63798 69.4988 5.01398 69.4988 4.24597C69.4988 3.47798 69.6788 2.82398 70.0388 2.28398C70.4108 1.73198 70.9268 1.31198 71.5868 1.02398C72.2588 0.723975 73.0448 0.573975 73.9448 0.573975C74.8448 0.573975 75.6428 0.729975 76.3388 1.04198C77.0468 1.34197 77.5988 1.79797 77.9948 2.40997C78.4028 3.00997 78.6068 3.76597 78.6068 4.67797V5.21797H76.2668V4.67797C76.2668 4.19797 76.1708 3.81398 75.9788 3.52598C75.7988 3.22597 75.5348 3.00997 75.1868 2.87797C74.8388 2.73397 74.4248 2.66197 73.9448 2.66197C73.2248 2.66197 72.6908 2.79997 72.3428 3.07597C72.0068 3.33997 71.8388 3.70598 71.8388 4.17398C71.8388 4.48598 71.9168 4.74997 72.0728 4.96597C72.2408 5.18197 72.4868 5.36197 72.8108 5.50597C73.1348 5.64997 73.5488 5.77598 74.0528 5.88398L74.4668 5.97397C75.3668 6.16597 76.1468 6.41197 76.8068 6.71198C77.4788 7.01198 78.0008 7.40798 78.3728 7.89998C78.7448 8.39198 78.9308 9.02198 78.9308 9.78998C78.9308 10.558 78.7328 11.236 78.3368 11.824C77.9528 12.4 77.4008 12.856 76.6808 13.192C75.9728 13.516 75.1328 13.678 74.1608 13.678Z" fill="#002740"/>
<path d="M85.3108 13.678C83.7508 13.678 82.5148 13.246 81.6028 12.382C80.6908 11.506 80.2348 10.258 80.2348 8.63798V5.61398C80.2348 3.99398 80.6908 2.75198 81.6028 1.88797C82.5148 1.01197 83.7508 0.573975 85.3108 0.573975C86.8588 0.573975 88.0528 0.999975 88.8928 1.85198C89.7448 2.69198 90.1708 3.84998 90.1708 5.32597V5.43397H87.8308V5.25397C87.8308 4.50997 87.6208 3.89797 87.2008 3.41797C86.7928 2.93797 86.1628 2.69798 85.3108 2.69798C84.4708 2.69798 83.8108 2.95598 83.3308 3.47197C82.8508 3.98797 82.6108 4.68997 82.6108 5.57798V8.67397C82.6108 9.54997 82.8508 10.252 83.3308 10.78C83.8108 11.296 84.4708 11.554 85.3108 11.554C86.1628 11.554 86.7928 11.314 87.2008 10.834C87.6208 10.342 87.8308 9.72998 87.8308 8.99798V8.67397H90.1708V8.92598C90.1708 10.402 89.7448 11.566 88.8928 12.418C88.0528 13.258 86.8588 13.678 85.3108 13.678Z" fill="#002740"/>
<path d="M91.9268 13.426V0.825975H97.3988C98.1908 0.825975 98.8808 0.963975 99.4688 1.23997C100.057 1.51597 100.513 1.90597 100.837 2.40997C101.161 2.91397 101.323 3.50797 101.323 4.19198V4.40797C101.323 5.16397 101.143 5.77598 100.783 6.24398C100.423 6.71198 99.9788 7.05398 99.4508 7.26998V7.59398C99.9308 7.61798 100.303 7.78597 100.567 8.09798C100.831 8.39797 100.963 8.79998 100.963 9.30398V13.426H98.5868V9.64598C98.5868 9.35798 98.5088 9.12398 98.3528 8.94398C98.2088 8.76398 97.9628 8.67397 97.6148 8.67397H94.3028V13.426H91.9268ZM94.3028 6.51398H97.1468C97.7108 6.51398 98.1488 6.36398 98.4608 6.06398C98.7848 5.75198 98.9468 5.34398 98.9468 4.83997V4.65998C98.9468 4.15597 98.7908 3.75397 98.4788 3.45398C98.1668 3.14197 97.7228 2.98597 97.1468 2.98597H94.3028V6.51398Z" fill="#002740"/>
<path d="M108.016 13.678C106.432 13.678 105.172 13.246 104.236 12.382C103.3 11.506 102.832 10.258 102.832 8.63798V5.61398C102.832 3.99398 103.3 2.75198 104.236 1.88797C105.172 1.01197 106.432 0.573975 108.016 0.573975C109.6 0.573975 110.86 1.01197 111.796 1.88797C112.732 2.75198 113.2 3.99398 113.2 5.61398V8.63798C113.2 10.258 112.732 11.506 111.796 12.382C110.86 13.246 109.6 13.678 108.016 13.678ZM108.016 11.554C108.904 11.554 109.594 11.296 110.086 10.78C110.578 10.264 110.824 9.57398 110.824 8.70998V5.54198C110.824 4.67797 110.578 3.98797 110.086 3.47197C109.594 2.95598 108.904 2.69798 108.016 2.69798C107.14 2.69798 106.45 2.95598 105.946 3.47197C105.454 3.98797 105.208 4.67797 105.208 5.54198V8.70998C105.208 9.57398 105.454 10.264 105.946 10.78C106.45 11.296 107.14 11.554 108.016 11.554Z" fill="#002740"/>
<path d="M116.006 13.426L114.35 0.825975H116.708L117.932 11.77H118.256L119.84 0.825975H123.944L125.528 11.77H125.852L127.076 0.825975H129.434L127.778 13.426H123.674L122.054 2.22997H121.73L120.11 13.426H116.006Z" fill="#002740"/>
<path d="M60 35.426V22.826H64.41L66.588 33.806H66.912L69.09 22.826H73.5V35.426H71.196V24.572H70.872L68.712 35.426H64.788L62.628 24.572H62.304V35.426H60Z" fill="#002740"/>
<path d="M74.829 35.426L78.141 22.826H82.281L85.593 35.426H83.145L82.461 32.654H77.961L77.277 35.426H74.829ZM78.519 30.458H81.903L80.373 24.32H80.049L78.519 30.458Z" fill="#002740"/>
<path d="M86.9212 35.426V22.826H92.3932C93.1852 22.826 93.8752 22.964 94.4632 23.24C95.0513 23.516 95.5072 23.906 95.8312 24.41C96.1553 24.914 96.3172 25.508 96.3172 26.192V26.408C96.3172 27.164 96.1372 27.776 95.7772 28.244C95.4172 28.712 94.9733 29.054 94.4453 29.27V29.594C94.9253 29.618 95.2972 29.786 95.5612 30.098C95.8252 30.398 95.9572 30.8 95.9572 31.304V35.426H93.5812V31.646C93.5812 31.358 93.5033 31.124 93.3472 30.944C93.2032 30.764 92.9572 30.674 92.6092 30.674H89.2972V35.426H86.9212ZM89.2972 28.514H92.1413C92.7052 28.514 93.1432 28.364 93.4552 28.064C93.7793 27.752 93.9412 27.344 93.9412 26.84V26.66C93.9412 26.156 93.7853 25.754 93.4733 25.454C93.1613 25.142 92.7173 24.986 92.1413 24.986H89.2972V28.514Z" fill="#002740"/>
<path d="M98.1143 35.426V22.826H100.49V27.83H100.814L104.9 22.826H107.942L102.686 29.036L108.122 35.426H104.99L100.814 30.314H100.49V35.426H98.1143Z" fill="#002740"/>
<path d="M109.202 35.426V22.826H117.302V24.986H111.578V27.992H116.798V30.152H111.578V33.266H117.41V35.426H109.202Z" fill="#002740"/>
<path d="M121.905 35.426V24.986H118.233V22.826H127.953V24.986H124.281V35.426H121.905Z" fill="#002740"/>
</svg>
