<svg width="64" height="64" viewBox="0 0 64 64" fill="none" xmlns="http://www.w3.org/2000/svg">
<mask id="path-1-outside-1_468_11293" maskUnits="userSpaceOnUse" x="0" y="0" width="64" height="64" fill="black">
<rect fill="white" width="64" height="64"/>
<path fill-rule="evenodd" clip-rule="evenodd" d="M36.925 41.1775C40.2925 38.395 42 34.6338 42 30V23H22V30C22 34.6625 23.7275 38.4388 27.135 41.2262C28.5849 42.4123 30.2315 43.335 32 43.9525C33.7919 43.324 35.4591 42.3846 36.925 41.1775ZM25.9994 33C25.9994 33.2654 26.1049 33.5199 26.2925 33.7075L29.2925 36.7075C29.3854 36.8005 29.4957 36.8742 29.6171 36.9246C29.7385 36.9749 29.8686 37.0008 30 37.0008C30.1314 37.0008 30.2615 36.9749 30.3829 36.9246C30.5043 36.8742 30.6146 36.8005 30.7075 36.7075L37.7075 29.7075C37.8004 29.6146 37.8741 29.5043 37.9244 29.3829C37.9747 29.2615 38.0006 29.1314 38.0006 29C38.0006 28.8686 37.9747 28.7385 37.9244 28.6171C37.8741 28.4957 37.8004 28.3854 37.7075 28.2925C37.6146 28.1996 37.5043 28.1259 37.3829 28.0756C37.2615 28.0253 37.1314 27.9994 37 27.9994C36.8686 27.9994 36.7385 28.0253 36.6171 28.0756C36.4957 28.1259 36.3854 28.1996 36.2925 28.2925L30 34.5863L27.7075 32.2925C27.5199 32.1049 27.2654 31.9994 27 31.9994C26.7346 31.9994 26.4801 32.1049 26.2925 32.2925C26.1049 32.4801 25.9994 32.7346 25.9994 33Z"/>
<path fill-rule="evenodd" clip-rule="evenodd" d="M58 32C58 46.3594 46.3594 58 32 58C17.6406 58 6 46.3594 6 32C6 17.6406 17.6406 6 32 6C46.3594 6 58 17.6406 58 32ZM20.5858 21.5858C20.9609 21.2107 21.4696 21 22 21H42C42.5304 21 43.0391 21.2107 43.4142 21.5858C43.7893 21.9609 44 22.4696 44 23V30C44 36.59 40.81 40.5838 38.1413 42.7738C35.255 45.1312 32.3913 45.9313 32.2663 45.965C32.0944 46.0118 31.9131 46.0118 31.7412 45.965C31.6162 45.9313 28.7488 45.1312 25.8662 42.7738C23.19 40.5838 20 36.59 20 30V23C20 22.4696 20.2107 21.9609 20.5858 21.5858Z"/>
</mask>
<path fill-rule="evenodd" clip-rule="evenodd" d="M36.925 41.1775C40.2925 38.395 42 34.6338 42 30V23H22V30C22 34.6625 23.7275 38.4388 27.135 41.2262C28.5849 42.4123 30.2315 43.335 32 43.9525C33.7919 43.324 35.4591 42.3846 36.925 41.1775ZM25.9994 33C25.9994 33.2654 26.1049 33.5199 26.2925 33.7075L29.2925 36.7075C29.3854 36.8005 29.4957 36.8742 29.6171 36.9246C29.7385 36.9749 29.8686 37.0008 30 37.0008C30.1314 37.0008 30.2615 36.9749 30.3829 36.9246C30.5043 36.8742 30.6146 36.8005 30.7075 36.7075L37.7075 29.7075C37.8004 29.6146 37.8741 29.5043 37.9244 29.3829C37.9747 29.2615 38.0006 29.1314 38.0006 29C38.0006 28.8686 37.9747 28.7385 37.9244 28.6171C37.8741 28.4957 37.8004 28.3854 37.7075 28.2925C37.6146 28.1996 37.5043 28.1259 37.3829 28.0756C37.2615 28.0253 37.1314 27.9994 37 27.9994C36.8686 27.9994 36.7385 28.0253 36.6171 28.0756C36.4957 28.1259 36.3854 28.1996 36.2925 28.2925L30 34.5863L27.7075 32.2925C27.5199 32.1049 27.2654 31.9994 27 31.9994C26.7346 31.9994 26.4801 32.1049 26.2925 32.2925C26.1049 32.4801 25.9994 32.7346 25.9994 33Z" fill="#38C5B4"/>
<path fill-rule="evenodd" clip-rule="evenodd" d="M58 32C58 46.3594 46.3594 58 32 58C17.6406 58 6 46.3594 6 32C6 17.6406 17.6406 6 32 6C46.3594 6 58 17.6406 58 32ZM20.5858 21.5858C20.9609 21.2107 21.4696 21 22 21H42C42.5304 21 43.0391 21.2107 43.4142 21.5858C43.7893 21.9609 44 22.4696 44 23V30C44 36.59 40.81 40.5838 38.1413 42.7738C35.255 45.1312 32.3913 45.9313 32.2663 45.965C32.0944 46.0118 31.9131 46.0118 31.7412 45.965C31.6162 45.9313 28.7488 45.1312 25.8662 42.7738C23.19 40.5838 20 36.59 20 30V23C20 22.4696 20.2107 21.9609 20.5858 21.5858Z" fill="#38C5B4"/>
<path d="M20.5858 21.5858L24.8284 25.8284L24.8284 25.8284L20.5858 21.5858ZM43.4142 21.5858L47.6569 17.3431L47.6568 17.3431L43.4142 21.5858ZM38.1413 42.7738L41.9368 47.4206L41.9474 47.412L38.1413 42.7738ZM32.2663 45.965L30.7023 40.1724L30.6913 40.1754L32.2663 45.965ZM31.7412 45.965L33.3162 40.1754L33.3052 40.1724L31.7412 45.965ZM25.8662 42.7738L22.0665 47.4172L22.0677 47.4182L25.8662 42.7738ZM36.925 41.1775L40.7391 45.8092L40.7468 45.8028L36.925 41.1775ZM42 23H48V17H42V23ZM22 23V17H16V23H22ZM27.135 41.2262L23.3359 45.8703L23.3362 45.8705L27.135 41.2262ZM32 43.9525L30.022 49.6171L32.0044 50.3093L33.9858 49.6144L32 43.9525ZM29.2925 36.7075L33.5375 32.4672L33.5351 32.4649L29.2925 36.7075ZM30.7075 36.7075L26.4649 32.4649L26.4625 32.4672L30.7075 36.7075ZM37.3829 28.0756L35.0868 33.6189L35.0868 33.6189L37.3829 28.0756ZM36.6171 28.0756L38.9132 33.6189L38.9132 33.6189L36.6171 28.0756ZM36.2925 28.2925L32.0499 24.0499L32.0494 24.0503L36.2925 28.2925ZM30 34.5863L25.7562 38.8277L29.9993 43.0731L34.2431 38.8285L30 34.5863ZM27.7075 32.2925L31.9513 28.051L31.9501 28.0499L27.7075 32.2925ZM32 64C49.6731 64 64 49.6731 64 32H52C52 43.0457 43.0457 52 32 52V64ZM0 32C0 49.6731 14.3269 64 32 64V52C20.9543 52 12 43.0457 12 32H0ZM32 0C14.3269 0 0 14.3269 0 32H12C12 20.9543 20.9543 12 32 12V0ZM64 32C64 14.3269 49.6731 0 32 0V12C43.0457 12 52 20.9543 52 32H64ZM22 15C19.8783 15 17.8434 15.8429 16.3431 17.3432L24.8284 25.8284C24.0783 26.5786 23.0609 27 22 27V15ZM42 15H22V27H42V15ZM47.6568 17.3431C46.1566 15.8429 44.1217 15 42 15V27C40.9391 27 39.9217 26.5786 39.1716 25.8284L47.6568 17.3431ZM50 23C50 20.8783 49.1572 18.8434 47.6569 17.3431L39.1716 25.8284C38.4214 25.0783 38 24.0609 38 23H50ZM50 30V23H38V30H50ZM41.9474 47.412C45.6218 44.3968 50 38.8296 50 30H38C38 34.3504 35.9982 36.7707 34.3351 38.1355L41.9474 47.412ZM33.8302 51.7576C34.3705 51.6117 38.1364 50.5248 41.9368 47.4206L34.3457 38.1269C32.3736 39.7377 30.412 40.2508 30.7023 40.1724L33.8302 51.7576ZM30.1663 51.7546C31.3694 52.0819 32.6381 52.0819 33.8412 51.7546L30.6913 40.1754C31.5506 39.9416 32.4569 39.9416 33.3162 40.1754L30.1663 51.7546ZM22.0677 47.4182C25.8673 50.5258 29.6403 51.6126 30.1773 51.7576L33.3052 40.1724C33.5922 40.2499 31.6302 39.7367 29.6648 38.1293L22.0677 47.4182ZM14 30C14 38.83 18.3787 44.3995 22.0665 47.4172L29.666 38.1303C28.0013 36.768 26 34.35 26 30H14ZM14 23V30H26V23H14ZM16.3432 17.3431C14.8429 18.8434 14 20.8783 14 23H26C26 24.0609 25.5786 25.0783 24.8284 25.8284L16.3432 17.3431ZM36 30C36 32.9693 34.9977 34.9868 33.1032 36.5522L40.7468 45.8028C45.5873 41.8032 48 36.2982 48 30H36ZM36 23V30H48V23H36ZM22 29H42V17H22V29ZM28 30V23H16V30H28ZM30.9341 36.5822C29.0112 35.0092 28 32.9845 28 30H16C16 36.3405 18.4438 41.8683 23.3359 45.8703L30.9341 36.5822ZM33.978 38.2879C32.8714 37.9015 31.8411 37.3241 30.9338 36.582L23.3362 45.8705C25.3288 47.5004 27.5916 48.7684 30.022 49.6171L33.978 38.2879ZM33.1109 36.5458C32.1892 37.3048 31.1409 37.8955 30.0142 38.2906L33.9858 49.6144C36.443 48.7525 38.729 47.4645 40.7391 45.8092L33.1109 36.5458ZM30.5351 29.4649C31.4727 30.4024 31.9994 31.6741 31.9994 33H19.9994C19.9994 34.8567 20.737 36.6373 22.0499 37.9501L30.5351 29.4649ZM33.5351 32.4649L30.5351 29.4649L22.0499 37.9501L25.0499 40.9501L33.5351 32.4649ZM31.9147 31.3819C32.5217 31.6336 33.0732 32.0024 33.5375 32.4672L25.0475 40.9478C25.6976 41.5986 26.4696 42.1149 27.3195 42.4672L31.9147 31.3819ZM30 31.0008C30.6571 31.0008 31.3077 31.1303 31.9147 31.3819L27.3195 42.4672C28.1692 42.8195 29.0801 43.0008 30 43.0008V31.0008ZM28.0853 31.3819C28.6923 31.1303 29.3429 31.0008 30 31.0008V43.0008C30.9199 43.0008 31.8308 42.8195 32.6805 42.4672L28.0853 31.3819ZM26.4625 32.4672C26.9268 32.0024 27.4783 31.6336 28.0853 31.3819L32.6805 42.4672C33.5304 42.1149 34.3024 41.5986 34.9525 40.9478L26.4625 32.4672ZM33.4649 25.4649L26.4649 32.4649L34.9501 40.9501L41.9501 33.9501L33.4649 25.4649ZM32.3811 27.0868C32.6323 26.4803 33.0006 25.9291 33.4649 25.4649L41.9501 33.9501C42.6002 33.3 43.1159 32.5283 43.4677 31.679L32.3811 27.0868ZM32.0006 29C32.0006 28.3434 32.1299 27.6933 32.3811 27.0868L43.4677 31.679C43.8195 30.8297 44.0006 29.9193 44.0006 29H32.0006ZM32.3811 30.9132C32.1299 30.3067 32.0006 29.6566 32.0006 29H44.0006C44.0006 28.0807 43.8195 27.1703 43.4677 26.321L32.3811 30.9132ZM33.4649 32.5351C33.0006 32.0709 32.6323 31.5197 32.3811 30.9132L43.4677 26.321C43.1159 25.4717 42.6002 24.7 41.9501 24.0499L33.4649 32.5351ZM35.0868 33.6189C34.4802 33.3677 33.9291 32.9994 33.4649 32.5351L41.9501 24.0499C41.3001 23.3998 40.5283 22.8841 39.679 22.5323L35.0868 33.6189ZM37 33.9994C36.3434 33.9994 35.6933 33.8701 35.0868 33.6189L39.679 22.5323C38.8297 22.1805 37.9193 21.9994 37 21.9994V33.9994ZM38.9132 33.6189C38.3067 33.8701 37.6566 33.9994 37 33.9994V21.9994C36.0807 21.9994 35.1703 22.1805 34.321 22.5323L38.9132 33.6189ZM40.5351 32.5351C40.0709 32.9994 39.5197 33.3677 38.9132 33.6189L34.321 22.5323C33.4717 22.8841 32.6999 23.3998 32.0499 24.0499L40.5351 32.5351ZM34.2431 38.8285L40.5356 32.5347L32.0494 24.0503L25.7569 30.344L34.2431 38.8285ZM23.4637 36.534L25.7562 38.8277L34.2438 30.3448L31.9513 28.051L23.4637 36.534ZM27 37.9994C25.6741 37.9994 24.4024 37.4727 23.4649 36.5351L31.9501 28.0499C30.6373 26.737 28.8567 25.9994 27 25.9994V37.9994ZM30.5351 36.5351C29.5976 37.4727 28.3259 37.9994 27 37.9994V25.9994C25.1433 25.9994 23.3627 26.737 22.0499 28.0499L30.5351 36.5351ZM31.9994 33C31.9994 34.3259 31.4727 35.5976 30.5351 36.5351L22.0499 28.0499C20.737 29.3627 19.9994 31.1433 19.9994 33H31.9994Z" fill="#EEFFFC" mask="url(#path-1-outside-1_468_11293)"/>
</svg>
