<svg width="64" height="64" viewBox="0 0 64 64" fill="none" xmlns="http://www.w3.org/2000/svg">
<path d="M3 32C3 15.9837 15.9837 3 32 3C48.0163 3 61 15.9837 61 32C61 48.0163 48.0163 61 32 61C15.9837 61 3 48.0163 3 32Z" fill="#21AB9D"/>
<path d="M3 32C3 15.9837 15.9837 3 32 3C48.0163 3 61 15.9837 61 32C61 48.0163 48.0163 61 32 61C15.9837 61 3 48.0163 3 32Z" stroke="#184946" stroke-width="6"/>
<path d="M42 21H22C21.4696 21 20.9609 21.2107 20.5858 21.5858C20.2107 21.9609 20 22.4696 20 23V30C20 36.59 23.19 40.5838 25.8663 42.7738C28.7488 45.1313 31.6163 45.9313 31.7413 45.965C31.9131 46.0118 32.0944 46.0118 32.2663 45.965C32.3913 45.9313 35.255 45.1313 38.1413 42.7738C40.81 40.5838 44 36.59 44 30V23C44 22.4696 43.7893 21.9609 43.4142 21.5858C43.0391 21.2107 42.5304 21 42 21ZM42 30C42 34.6337 40.2925 38.395 36.925 41.1775C35.4591 42.3846 33.7919 43.324 32 43.9525C30.2315 43.335 28.5849 42.4123 27.135 41.2262C23.7275 38.4388 22 34.6625 22 30V23H42V30ZM26.2925 33.7075C26.1049 33.5199 25.9994 33.2654 25.9994 33C25.9994 32.7346 26.1049 32.4801 26.2925 32.2925C26.4801 32.1049 26.7346 31.9994 27 31.9994C27.2654 31.9994 27.5199 32.1049 27.7075 32.2925L30 34.5863L36.2925 28.2925C36.3854 28.1996 36.4957 28.1259 36.6171 28.0756C36.7385 28.0253 36.8686 27.9994 37 27.9994C37.1314 27.9994 37.2615 28.0253 37.3829 28.0756C37.5043 28.1259 37.6146 28.1996 37.7075 28.2925C37.8004 28.3854 37.8741 28.4957 37.9244 28.6171C37.9747 28.7385 38.0006 28.8686 38.0006 29C38.0006 29.1314 37.9747 29.2615 37.9244 29.3829C37.8741 29.5043 37.8004 29.6146 37.7075 29.7075L30.7075 36.7075C30.6146 36.8005 30.5043 36.8742 30.3829 36.9246C30.2615 36.9749 30.1314 37.0008 30 37.0008C29.8686 37.0008 29.7385 36.9749 29.6171 36.9246C29.4957 36.8742 29.3854 36.8005 29.2925 36.7075L26.2925 33.7075Z" fill="white"/>
</svg>
