<svg width="25" height="24" viewBox="0 0 25 24" fill="none" xmlns="http://www.w3.org/2000/svg">
<path d="M21.3472 14.8556L16.9306 12.8766L16.9184 12.8709C16.6892 12.7729 16.439 12.7335 16.1907 12.7564C15.9424 12.7793 15.7037 12.8638 15.4963 13.0022C15.4718 13.0183 15.4484 13.0358 15.4259 13.0547L13.1441 15C11.6984 14.2978 10.2059 12.8166 9.50376 11.3897L11.4519 9.07312C11.4706 9.04968 11.4884 9.02624 11.5053 9.00093C11.6407 8.79403 11.7229 8.55686 11.7445 8.31053C11.7661 8.0642 11.7264 7.81636 11.6291 7.58906V7.57781L9.64438 3.15374C9.5157 2.8568 9.29444 2.60944 9.01362 2.44859C8.7328 2.28774 8.4075 2.22202 8.08626 2.26124C6.81592 2.42841 5.64986 3.05228 4.80588 4.01633C3.9619 4.98039 3.49771 6.2187 3.50001 7.49999C3.50001 14.9437 9.55626 21 17 21C18.2813 21.0023 19.5196 20.5381 20.4837 19.6941C21.4477 18.8501 22.0716 17.6841 22.2388 16.4137C22.2781 16.0926 22.2125 15.7674 22.0518 15.4866C21.8911 15.2058 21.644 14.9845 21.3472 14.8556ZM17 19.5C13.8185 19.4965 10.7682 18.2311 8.51856 15.9814C6.26888 13.7318 5.00348 10.6815 5.00001 7.49999C4.99648 6.58451 5.32631 5.69905 5.92789 5.00897C6.52947 4.31888 7.36167 3.87137 8.26907 3.74999C8.2687 3.75373 8.2687 3.7575 8.26907 3.76124L10.2378 8.16749L8.30001 10.4869C8.28034 10.5095 8.26247 10.5336 8.24657 10.5591C8.10549 10.7755 8.02273 11.0248 8.0063 11.2827C7.98988 11.5406 8.04035 11.7983 8.15282 12.0309C9.0022 13.7681 10.7525 15.5053 12.5084 16.3537C12.7428 16.4652 13.002 16.5139 13.2608 16.4952C13.5196 16.4764 13.7692 16.3909 13.985 16.2469C14.0091 16.2307 14.0322 16.2131 14.0544 16.1944L16.3334 14.25L20.7397 16.2234C20.7397 16.2234 20.7472 16.2234 20.75 16.2234C20.6301 17.1321 20.1833 17.966 19.4931 18.5691C18.8028 19.1721 17.9166 19.5031 17 19.5Z" fill="#002740"/>
</svg>
