<svg width="27" height="27" viewBox="0 0 27 27" fill="none" xmlns="http://www.w3.org/2000/svg">
<g opacity="0.4">
<path d="M16.2721 13.5425C19.8899 15.5912 22.3874 17.397 22.1456 17.8574C21.9039 18.3179 18.9993 17.2879 15.2584 15.4736C16.3679 19.4804 16.857 22.5233 16.3605 22.6779C15.864 22.8326 14.5385 20.0503 13.1761 16.1223C11.1275 19.7401 9.32167 22.2375 8.86123 21.9958C8.40079 21.7541 9.43082 18.8494 11.2451 15.1086C7.23827 16.2181 4.19542 16.7072 4.04076 16.2107C3.88609 15.7142 6.66834 14.3886 10.5964 13.0263C6.97859 10.9776 4.48116 9.17182 4.72287 8.71139C4.96458 8.25095 7.86924 9.28097 11.6101 11.0952C10.5006 7.08842 10.0115 4.04558 10.508 3.89092C11.0045 3.73625 12.3301 6.5185 13.6924 10.4465C15.7411 6.82875 17.5469 4.33132 18.0073 4.57303C18.4677 4.81473 17.4377 7.7194 15.6235 11.4603C19.6303 10.3507 22.6731 9.86166 22.8278 10.3582C22.9824 10.8546 20.2002 12.1802 16.2721 13.5425Z" fill="#26BA73"/>
</g>
</svg>
