<svg width="24" height="24" viewBox="0 0 24 24" fill="none" xmlns="http://www.w3.org/2000/svg">
<path fill-rule="evenodd" clip-rule="evenodd" d="M14.4652 15.0252C13.1171 16.1023 11.4078 16.6223 9.68834 16.4785C7.96885 16.3347 6.36969 15.5379 5.2193 14.2519C4.06891 12.9658 3.45463 11.2881 3.50261 9.56326C3.5506 7.83842 4.25721 6.19744 5.47732 4.97732C6.69744 3.75721 8.33842 3.0506 10.0633 3.00261C11.7881 2.95463 13.4658 3.56891 14.7519 4.7193C16.0379 5.86969 16.8347 7.46885 16.9785 9.18834C17.1223 10.9078 16.6023 12.6171 15.5252 13.9652L20.6812 19.1202C20.7549 19.1888 20.814 19.2716 20.8549 19.3636C20.8959 19.4556 20.918 19.5549 20.9198 19.6556C20.9215 19.7563 20.903 19.8564 20.8653 19.9498C20.8276 20.0432 20.7714 20.128 20.7002 20.1992C20.629 20.2704 20.5442 20.3266 20.4508 20.3643C20.3574 20.402 20.2573 20.4205 20.1566 20.4188C20.0559 20.417 19.9566 20.3949 19.8646 20.3539C19.7726 20.313 19.6898 20.2539 19.6212 20.1802L14.4652 15.0252ZM6.54017 13.4632C5.80621 12.7291 5.30632 11.794 5.10368 10.7759C4.90104 9.75788 5.00474 8.7026 5.40168 7.74347C5.79862 6.78433 6.47098 5.96439 7.33378 5.38727C8.19659 4.81015 9.21111 4.50175 10.2491 4.50105C11.2872 4.50035 12.3021 4.80738 13.1657 5.38334C14.0293 5.9593 14.7027 6.77834 15.101 7.73694C15.4992 8.69554 15.6043 9.75068 15.403 10.769C15.2018 11.7873 14.7031 12.7231 13.9702 13.4582L13.9652 13.4632L13.9602 13.4672C12.9753 14.4498 11.6406 15.0013 10.2493 15.0005C8.85808 14.9998 7.52401 14.4469 6.54017 13.4632Z" fill="#7E899C"/>
</svg>
