<svg width="100" height="100" viewBox="0 0 100 100" fill="none" xmlns="http://www.w3.org/2000/svg">
<path d="M5 50C5 25.1472 25.1472 5 50 5C74.8528 5 95 25.1472 95 50C95 74.8528 74.8528 95 50 95C25.1472 95 5 74.8528 5 50Z" fill="#EF4444"/>
<path d="M5 50C5 25.1472 25.1472 5 50 5C74.8528 5 95 25.1472 95 50C95 74.8528 74.8528 95 50 95C25.1472 95 5 74.8528 5 50Z" stroke="#FEF2F2" stroke-width="10"/>
<path d="M52.4996 54.6375C54.4591 53.4171 55.9678 51.5916 56.7975 49.4373C57.6272 47.2831 57.7326 44.9172 57.098 42.6976C56.4633 40.4781 55.123 38.5256 53.2798 37.1356C51.4366 35.7456 49.1909 34.9938 46.8824 34.9938C44.5739 34.9938 42.3282 35.7456 40.485 37.1356C38.6419 38.5256 37.3015 40.4781 36.6669 42.6976C36.0322 44.9172 36.1376 47.2831 36.9673 49.4373C37.797 51.5916 39.3057 53.4171 41.2652 54.6375C38.0387 55.6938 35.1355 57.6672 32.8012 60.4453C32.5877 60.6992 32.4839 61.0274 32.5125 61.3577C32.541 61.6881 32.6997 61.9936 32.9535 62.2071C33.2073 62.4205 33.5355 62.5243 33.8659 62.4958C34.1963 62.4672 34.5018 62.3085 34.7152 62.0547C37.8512 58.311 42.173 56.25 46.8746 56.25C51.5762 56.25 55.898 58.311 59.0418 62.0547C59.2552 62.3085 59.5607 62.4672 59.8911 62.4958C60.2215 62.5243 60.5497 62.4205 60.8035 62.2071C61.0573 61.9936 61.216 61.6881 61.2445 61.3577C61.2731 61.0274 61.1693 60.6992 60.9558 60.4453C58.6215 57.6672 55.7183 55.6938 52.4996 54.6375ZM38.7496 45.625C38.7496 44.0181 39.2261 42.4472 40.1189 41.111C41.0117 39.7749 42.2806 38.7335 43.7653 38.1185C45.2499 37.5035 46.8836 37.3426 48.4597 37.6561C50.0358 37.9696 51.4835 38.7435 52.6198 39.8798C53.7561 41.0161 54.53 42.4638 54.8435 44.0399C55.157 45.616 54.9961 47.2497 54.3811 48.7343C53.7662 50.219 52.7248 51.4879 51.3886 52.3807C50.0525 53.2735 48.4816 53.75 46.8746 53.75C44.7205 53.7475 42.6553 52.8907 41.1321 51.3675C39.6089 49.8443 38.7521 47.7791 38.7496 45.625Z" fill="white"/>
<path d="M65.0748 52.1747L67.2296 50.0258H67.2249C67.4008 49.8499 67.4996 49.6113 67.4996 49.3626C67.4996 49.1139 67.4008 48.8753 67.2249 48.6994C67.049 48.5235 66.8104 48.4247 66.5617 48.4247C66.313 48.4247 66.0744 48.5235 65.8985 48.6994L63.7496 50.8495L61.6007 48.6994C61.4248 48.5235 61.1862 48.4247 60.9375 48.4247C60.6887 48.4247 60.4502 48.5235 60.2743 48.6994C60.0984 48.8753 59.9996 49.1139 59.9996 49.3626C59.9996 49.6113 60.0984 49.8499 60.2743 50.0258L62.4244 52.1747L60.2743 54.3236C60.0984 54.4995 59.9996 54.7381 59.9996 54.9868C59.9996 55.2356 60.0984 55.4741 60.2743 55.65C60.4502 55.8259 60.6887 55.9247 60.9375 55.9247C61.1862 55.9247 61.4248 55.8259 61.6007 55.65L63.7496 53.4999L65.8985 55.65C65.9856 55.7371 66.089 55.8062 66.2028 55.8533C66.3166 55.9004 66.4385 55.9247 66.5617 55.9247C66.6849 55.9247 66.8068 55.9004 66.9206 55.8533C67.0344 55.8062 67.1378 55.7371 67.2249 55.65C67.312 55.5629 67.3811 55.4595 67.4282 55.3457C67.4753 55.2319 67.4996 55.11 67.4996 54.9868C67.4996 54.8636 67.4753 54.7417 67.4282 54.6279C67.3811 54.5141 67.312 54.4107 67.2249 54.3236L65.0748 52.1747Z" fill="white"/>
</svg>
