<svg width="16" height="16" viewBox="0 0 16 16" fill="none" xmlns="http://www.w3.org/2000/svg">
  <mask id="mask0_1113_28688" style="mask-type:luminance" maskUnits="userSpaceOnUse" x="0" y="7" width="15" height="7">
    <path d="M0.444443 7.05614H14.1858V13.7778H0.444443V7.05614Z" fill="white" />
  </mask>
  <g mask="url(#mask0_1113_28688)">
    <path
      d="M13.9338 8.9667L13.3424 9.62283C13.1892 9.79244 12.9286 9.79244 12.7735 9.62283L12.1911 8.97601C12.1176 8.89439 11.9823 8.94635 11.9823 9.05616V11.2383C11.9823 11.4476 11.8124 11.6175 11.6031 11.6175H4.68222C4.47266 11.6175 4.30281 11.4476 4.30281 11.2383V10.4792H5.80503C6.04179 10.4792 6.16459 10.1866 6.00307 10.0074L3.47192 7.19977C3.36481 7.08089 3.18294 7.08089 3.07608 7.19977L0.544925 10.0074C0.383404 10.1866 0.506199 10.4792 0.742966 10.4792H2.14249V13.056C2.14249 13.4547 2.46578 13.7778 2.86431 13.7778H13.4208C13.8196 13.7778 14.1426 13.4547 14.1426 13.056V9.04684C14.1426 8.93704 14.0073 8.88508 13.9338 8.9667Z"
      fill="#34d399" />
  </g>
  <mask id="mask1_1113_28688" style="mask-type:luminance" maskUnits="userSpaceOnUse" x="2" y="1" width="14" height="8">
    <path d="M2.13858 1.77778H15.8799V8.68765H2.13858V1.77778Z" fill="white" />
  </mask>
  <g mask="url(#mask1_1113_28688)">
    <path
      d="M15.5895 5.28076H14.1426V2.4996C14.1426 2.10082 13.8196 1.77778 13.4208 1.77778H2.86432C2.46579 1.77778 2.1425 2.10107 2.1425 2.4996V6.69719C2.1425 6.80504 2.27363 6.85798 2.34863 6.78053L2.97021 6.13714C3.13418 5.96753 3.4131 5.96753 3.57904 6.13714L4.09693 6.67293C4.17169 6.75038 4.30282 6.69744 4.30282 6.58959V4.31751C4.30282 4.10795 4.47267 3.93809 4.68223 3.93809H11.6031C11.8125 3.93809 11.9823 4.10795 11.9823 4.31751V5.28076H10.5274C10.2904 5.28076 10.1676 5.57341 10.3293 5.75257L12.8605 8.5602C12.9676 8.67883 13.1492 8.67883 13.2563 8.5602L15.7872 5.75257C15.949 5.57341 15.8262 5.28076 15.5895 5.28076Z"
      fill="#1f2937" />
  </g>
  <mask id="mask2_1113_28688" style="mask-type:luminance" maskUnits="userSpaceOnUse" x="7" y="3" width="3" height="4">
    <path d="M7.08665 3.72597H9.24696V6.82306H7.08665V3.72597Z" fill="white" />
  </mask>
  <g mask="url(#mask2_1113_28688)">
    <mask id="mask3_1113_28688" style="mask-type:luminance" maskUnits="userSpaceOnUse" x="7" y="3" width="3" height="4">
      <path
        d="M7.32194 3.72597H9.01167C9.07417 3.72597 9.13397 3.75072 9.17809 3.79484C9.22221 3.83896 9.24696 3.89901 9.24696 3.96126V6.58286C9.24696 6.64511 9.22221 6.70516 9.17809 6.74928C9.13397 6.7934 9.07417 6.81816 9.01167 6.81816H7.32194C7.25969 6.81816 7.19964 6.7934 7.15552 6.74928C7.1114 6.70516 7.08665 6.64511 7.08665 6.58286V3.96126C7.08665 3.89901 7.1114 3.83896 7.15552 3.79484C7.19964 3.75072 7.25969 3.72597 7.32194 3.72597Z"
        fill="white" />
    </mask>
    <g mask="url(#mask3_1113_28688)">
      <g filter="url(#filter0_d_1113_28688)">
        <path d="M7.08665 3.72597H9.24696V6.81472H7.08665V3.72597Z" fill="#1f2937" />
      </g>
    </g>
  </g>
  <mask id="mask4_1113_28688" style="mask-type:luminance" maskUnits="userSpaceOnUse" x="7" y="8" width="3" height="4">
    <path d="M7.08665 8.87196H9.24696V11.9691H7.08665V8.87196Z" fill="white" />
  </mask>
  <g mask="url(#mask4_1113_28688)">
    <mask id="mask5_1113_28688" style="mask-type:luminance" maskUnits="userSpaceOnUse" x="7" y="8" width="3" height="4">
      <path
        d="M7.32194 8.87196H9.01167C9.07417 8.87196 9.13397 8.89672 9.17809 8.94084C9.22221 8.98495 9.24696 9.045 9.24696 9.10726V11.7289C9.24696 11.7911 9.22221 11.8509 9.17809 11.8953C9.13397 11.9394 9.07417 11.9642 9.01167 11.9642H7.32194C7.25969 11.9642 7.19964 11.9394 7.15552 11.8953C7.1114 11.8509 7.08665 11.7911 7.08665 11.7289V9.10726C7.08665 9.045 7.1114 8.98495 7.15552 8.94084C7.19964 8.89672 7.25969 8.87196 7.32194 8.87196Z"
        fill="white" />
    </mask>
    <g mask="url(#mask5_1113_28688)">
      <path d="M7.08665 8.87196H9.24696V11.9607H7.08665V8.87196Z" fill="#34d399" />
    </g>
  </g>
  <defs>
    <filter id="filter0_d_1113_28688" x="3.08665" y="3.72597" width="10.1603" height="11.0888"
      filterUnits="userSpaceOnUse" color-interpolation-filters="sRGB">
      <feFlood flood-opacity="0" result="BackgroundImageFix" />
      <feColorMatrix in="SourceAlpha" type="matrix" values="0 0 0 0 0 0 0 0 0 0 0 0 0 0 0 0 0 0 127 0"
        result="hardAlpha" />
      <feOffset dy="4" />
      <feGaussianBlur stdDeviation="2" />
      <feComposite in2="hardAlpha" operator="out" />
      <feColorMatrix type="matrix" values="0 0 0 0 0.8375 0 0 0 0 0.8375 0 0 0 0 0.8375 0 0 0 0.25 0" />
      <feBlend mode="normal" in2="BackgroundImageFix" result="effect1_dropShadow_1113_28688" />
      <feBlend mode="normal" in="SourceGraphic" in2="effect1_dropShadow_1113_28688" result="shape" />
    </filter>
  </defs>
</svg>